<?xml version="1.0" standalone="no"?>
<!DOCTYPE svg PUBLIC "-//W3C//DTD SVG 20010904//EN"
 "http://www.w3.org/TR/2001/REC-SVG-20010904/DTD/svg10.dtd">
<svg version="1.0" xmlns="http://www.w3.org/2000/svg"
 width="300.000000pt" height="233.000000pt" viewBox="0 0 300.000000 233.000000"
 preserveAspectRatio="xMidYMid meet">
<metadata>
Created by potrace 1.10, written by Peter Selinger 2001-2011
</metadata>
<g transform="translate(0.000000,233.000000) scale(0.100000,-0.100000)"
fill="#000000" stroke="none">
<path d="M60 2300 c0 -23 -7 -33 -31 -45 -17 -9 -29 -19 -26 -21 3 -3 19 2 37
11 30 16 31 15 21 -2 -5 -10 -21 -25 -35 -33 -14 -7 -26 -17 -26 -22 0 -17 62
27 76 54 19 37 18 88 -1 88 -10 0 -15 -10 -15 -30z"/>
<path d="M200 2305 c43 -46 139 -58 154 -20 8 21 -3 45 -20 45 -8 0 -14 -7
-14 -15 0 -8 -5 -15 -11 -15 -5 0 -8 4 -4 9 3 5 0 13 -6 17 -8 4 -9 3 -5 -4 4
-7 3 -12 -3 -12 -5 0 -11 5 -13 12 -3 7 -7 6 -11 -5 -3 -9 -2 -17 4 -17 6 0
18 -7 27 -17 9 -9 12 -14 7 -12 -42 19 -65 34 -65 41 0 5 5 6 10 3 6 -3 10 -1
10 4 0 16 -18 13 -28 -5 -8 -14 -10 -14 -21 0 -8 9 -18 16 -24 16 -6 0 0 -11
13 -25z"/>
<path d="M391 2294 c-1 -46 17 -69 66 -83 34 -10 65 3 88 36 14 20 13 22 -25
28 -22 4 -42 11 -46 16 -7 12 4 11 51 -6 22 -7 39 -19 37 -25 -3 -14 71 -47
126 -56 37 -6 42 -4 42 13 0 24 -56 52 -122 60 -43 5 -48 8 -49 32 -2 24 -2
24 -6 3 -4 -18 -9 -22 -26 -16 -12 4 -26 13 -30 20 -4 8 -13 14 -20 14 -7 0
-6 -4 3 -10 13 -8 12 -10 -4 -10 -13 0 -17 -5 -13 -20 6 -23 -11 -27 -19 -5
-4 8 0 23 7 32 12 14 12 16 -1 11 -20 -6 -25 -35 -9 -54 8 -10 21 -13 41 -9
17 4 28 2 28 -4 0 -6 8 -8 18 -4 15 6 15 4 -2 -15 -26 -30 -100 -27 -97 4 1 5
-5 9 -11 9 -7 0 -16 18 -19 40 l-6 40 -2 -41z"/>
<path d="M751 2317 c-1 -11 8 -21 19 -24 11 -3 20 -10 20 -17 0 -6 13 -24 30
-39 34 -33 54 -27 91 24 33 46 17 64 -57 65 -33 0 -67 -3 -76 -8 -10 -5 -18
-3 -21 5 -3 7 -6 4 -6 -6z m94 -12 c11 0 23 4 26 8 3 4 16 3 30 -2 13 -5 18
-10 11 -10 -7 -1 -11 -5 -8 -10 4 -5 -4 -7 -16 -4 -20 5 -21 4 -8 -8 8 -8 13
-13 11 -11 -3 1 -11 -8 -19 -20 -7 -13 -11 -15 -8 -5 8 27 -3 45 -29 45 -17 0
-22 -5 -18 -17 3 -9 -4 -5 -15 9 -20 25 -11 47 13 32 5 -4 19 -7 30 -7z"/>
<path d="M993 2318 c-13 -6 -23 -17 -23 -24 0 -17 39 -44 63 -44 20 0 77 51
77 69 0 22 -20 10 -21 -11 l0 -23 -16 23 c-17 24 -44 27 -80 10z m27 -33 c-10
-12 -16 -13 -27 -3 -12 10 -11 13 9 24 26 14 37 1 18 -21z m38 8 c-2 -19 -10
-29 -23 -31 -16 -3 -18 -1 -7 9 6 7 12 21 12 31 0 10 5 18 11 18 6 0 9 -12 7
-27z"/>
<path d="M1351 2317 c-14 -14 -14 -52 -1 -78 13 -22 43 -25 59 -5 13 16 18 72
8 83 -12 11 -54 12 -66 0z m34 -17 c-19 -8 -19 -9 3 -9 12 -1 22 -5 22 -10 0
-42 -45 -57 -52 -18 -6 33 1 47 25 46 21 0 21 -1 2 -9z"/>
<path d="M1490 2314 c0 -7 6 -14 13 -17 10 -4 10 -7 0 -18 -18 -18 -16 -36 4
-44 12 -4 23 1 33 13 9 10 21 17 28 14 7 -2 22 4 33 14 20 18 26 54 9 54 -5 0
-10 -12 -10 -27 -1 -24 -2 -25 -11 -10 -14 25 -26 21 -44 -13 -9 -16 -22 -30
-30 -30 -20 0 -19 10 6 36 12 12 18 27 15 33 -9 14 -46 10 -46 -5z"/>
<path d="M1750 2317 c0 -38 60 -77 86 -56 17 14 19 69 2 69 -6 0 -22 -10 -35
-22 -25 -23 -44 -18 -24 6 10 12 9 15 -8 13 -12 -1 -21 -5 -21 -10z m85 -24
c0 -22 -4 -27 -20 -25 -11 2 -22 6 -24 8 -3 2 24 29 44 44 1 0 1 -12 0 -27z"/>
<path d="M1881 2292 c-1 -37 2 -43 17 -38 9 3 29 8 44 11 14 4 36 17 49 31 24
26 39 23 39 -6 0 -26 56 -77 108 -96 33 -13 48 -15 67 -6 32 15 34 58 4 67
-12 4 -37 23 -56 41 -18 19 -41 34 -51 34 -11 0 -7 -7 15 -21 31 -20 32 -20
12 -40 -10 -10 -19 -27 -19 -36 0 -13 -9 -8 -36 18 -25 24 -34 40 -31 57 4 19
0 22 -24 20 -15 -1 -25 -6 -23 -10 3 -4 -8 -11 -23 -14 -15 -4 -32 -13 -38
-19 -19 -23 -41 -24 -42 -1 0 11 1 15 4 9 7 -19 24 -15 21 5 -2 13 3 16 25 14
15 -2 27 1 27 6 0 5 -15 8 -34 8 -19 -1 -32 -4 -29 -8 2 -5 0 -8 -6 -8 -5 0
-12 6 -14 13 -3 6 -6 -7 -6 -31z m319 -62 c0 -6 -7 -10 -15 -10 -8 0 -13 -6
-11 -12 1 -7 1 -10 -1 -5 -3 4 -9 5 -13 2 -5 -3 -7 4 -5 16 3 13 -1 29 -8 37
-9 12 -5 12 21 -2 17 -9 32 -21 32 -26z"/>
<path d="M2232 2318 c6 -16 60 -30 72 -18 13 13 7 17 -37 24 -28 4 -38 3 -35
-6z"/>
<path d="M2594 2306 c-14 -56 22 -82 62 -46 24 24 33 70 13 70 -5 0 -7 -5 -3
-12 5 -8 2 -9 -12 -4 -46 19 -53 18 -60 -8z m51 0 c16 -12 17 -16 6 -30 -22
-26 -41 -19 -41 14 0 33 7 37 35 16z"/>
<path d="M2314 2297 c-13 -16 -3 -109 13 -114 16 -6 53 33 53 56 0 19 -36 71
-48 71 -4 -1 -12 -6 -18 -13z"/>
<path d="M1130 2281 c-5 -11 -10 -27 -10 -37 0 -9 -10 -57 -22 -106 -18 -72
-20 -91 -9 -97 9 -6 7 -10 -8 -14 -27 -7 -26 -1 3 105 13 48 21 89 18 92 -3 3
-29 6 -58 6 -122 0 -213 -91 -214 -213 0 -94 48 -164 140 -206 80 -36 156 -21
230 46 57 51 73 92 68 173 -4 68 -18 73 -103 35 -32 -14 -60 -23 -62 -21 -5 5
95 61 127 71 36 11 80 44 80 60 0 21 -62 85 -102 106 -47 24 -65 24 -78 0z
m69 -10 c41 -21 106 -89 96 -99 -4 -4 -14 3 -23 15 -14 17 -25 20 -57 17 -22
-3 -50 -5 -62 -6 -13 0 -20 -4 -17 -10 3 -5 0 -16 -8 -25 -12 -15 -10 -16 16
-9 17 4 35 14 41 22 9 13 11 11 10 -12 0 -15 6 -29 13 -32 9 -3 13 4 12 19 -3
39 -1 51 10 44 6 -3 8 -18 5 -33 l-5 -27 14 29 c13 28 14 29 24 9 10 -18 7
-22 -31 -39 -23 -11 -65 -33 -94 -51 -29 -17 -53 -28 -53 -25 0 4 11 50 23
102 27 109 34 115 99 74 29 -19 38 -21 28 -9 -8 10 -34 27 -57 37 -24 10 -43
21 -43 23 0 10 22 4 59 -14z m-172 -67 c-108 -21 -162 -78 -176 -185 l-8 -64
-2 51 c-2 80 39 151 108 186 38 20 67 28 100 27 46 -1 45 -1 -22 -15z m53 -21
c0 -4 -8 -43 -17 -85 -9 -43 -14 -81 -11 -84 4 -3 41 9 83 26 43 17 80 28 83
25 3 -3 7 -29 9 -58 5 -63 -16 -101 -78 -147 -44 -32 -70 -40 -49 -15 13 16 6
35 -13 34 -9 0 -9 -2 1 -6 17 -7 15 -23 -3 -23 -7 0 -18 7 -23 16 -8 14 -10
14 -15 1 -6 -16 30 -47 54 -47 7 0 10 -2 7 -5 -3 -3 -27 -1 -54 5 -46 10 -50
13 -48 38 2 42 3 43 28 36 29 -7 70 12 60 28 -4 6 -3 8 3 5 6 -4 11 5 11 21 0
38 -4 42 -38 32 -35 -10 -40 -3 -7 10 21 8 21 9 1 9 -11 1 -31 -11 -43 -25
-12 -14 -25 -23 -28 -20 -4 3 7 17 23 31 22 19 25 25 12 25 -10 0 -25 -12 -35
-26 -16 -25 -16 -28 -1 -55 17 -29 5 -56 -13 -28 -16 27 -23 -3 -7 -32 25 -42
4 -36 -52 17 -28 26 -50 43 -50 37 0 -5 17 -25 38 -45 37 -35 103 -67 145 -69
17 -1 18 -2 4 -6 -31 -8 -112 27 -153 66 -43 41 -48 62 -38 167 4 41 12 59 42
92 20 22 48 45 62 51 29 11 110 14 110 4z m175 -196 c-7 -58 -11 -66 -60 -114
-28 -29 -57 -53 -64 -53 -7 0 14 24 46 54 l58 54 2 73 c2 91 1 88 14 66 7 -12
8 -42 4 -80z m-205 -29 c0 6 5 12 10 12 15 0 12 -26 -5 -40 -10 -9 -15 -9 -15
-1 0 6 -4 11 -10 11 -18 0 2 -29 23 -33 21 -4 21 -4 1 -6 -11 0 -28 5 -37 12
-16 11 -16 14 -1 36 13 18 18 20 25 10 6 -10 9 -11 9 -1z"/>
<path d="M1000 2165 c-17 -21 -1 -38 31 -33 16 2 24 10 24 23 0 25 -37 32 -55
10z m50 -4 c0 -6 -5 -13 -10 -16 -15 -9 -43 3 -35 15 8 13 45 13 45 1z"/>
<path d="M958 2099 c-40 -29 -33 -79 11 -79 12 0 11 3 -2 18 -21 23 -21 29 -2
29 13 0 21 -24 16 -51 -3 -13 41 17 53 37 13 21 -8 67 -31 67 -10 0 -30 -10
-45 -21z"/>
<path d="M895 2090 c-9 -14 4 -52 16 -45 12 8 12 42 0 50 -5 3 -12 1 -16 -5z"/>
<path d="M1174 2029 c-3 -6 0 -17 7 -25 18 -17 44 -2 36 20 -7 18 -33 21 -43
5z"/>
<path d="M877 2013 c-15 -15 -5 -44 18 -55 38 -17 53 2 29 36 -19 25 -35 32
-47 19z"/>
<path d="M947 1995 c-8 -18 11 -31 25 -17 11 11 3 32 -12 32 -4 0 -10 -7 -13
-15z"/>
<path d="M1119 1996 c6 -8 20 -16 30 -19 14 -3 17 0 14 14 -4 12 -14 19 -30
19 -21 0 -23 -3 -14 -14z"/>
<path d="M1184 1969 c-10 -17 13 -36 27 -22 12 12 4 33 -11 33 -5 0 -12 -5
-16 -11z"/>
<path d="M1120 1934 c-15 -38 -12 -54 8 -54 38 0 60 61 26 74 -23 9 -24 8 -34
-20z"/>
<path d="M905 1930 c-4 -7 -3 -16 3 -22 14 -14 45 -2 40 15 -6 16 -34 21 -43
7z"/>
<path d="M2796 2284 c-3 -9 -6 -27 -6 -40 0 -22 -3 -24 -27 -17 -48 13 -89 8
-147 -21 -177 -87 -152 -336 39 -402 46 -15 60 -16 108 -5 59 13 127 62 152
110 18 35 29 122 21 155 -9 35 -29 33 -123 -8 -43 -19 -79 -33 -82 -31 -2 2 4
39 14 82 22 98 26 112 32 96 2 -7 -5 -44 -16 -82 -10 -39 -15 -73 -11 -76 5
-3 28 6 51 21 23 14 71 39 106 55 35 15 66 35 69 43 9 23 -61 102 -107 120
-50 20 -65 20 -73 0z m73 -13 c39 -21 106 -89 97 -99 -4 -3 -22 13 -41 35 -19
22 -53 48 -75 57 -39 15 -51 26 -30 26 6 0 28 -9 49 -19z m9 -36 c21 -14 45
-38 55 -54 l17 -29 -33 -13 c-17 -7 -58 -28 -90 -47 -32 -19 -60 -32 -63 -30
-2 3 6 48 18 101 25 110 32 115 96 72z m-133 -22 c-11 -2 -43 -9 -72 -14 -54
-11 -87 -33 -128 -88 -33 -46 -32 -27 1 23 33 48 111 86 174 85 25 -1 36 -3
25 -6z m1 -50 c-3 -16 -12 -54 -20 -86 -7 -31 -10 -60 -6 -62 10 -6 73 16 128
44 l41 21 7 -56 c7 -56 0 -80 -16 -54 -7 11 -12 12 -21 3 -14 -14 -2 -36 17
-29 8 3 14 1 14 -4 0 -11 -67 -79 -96 -97 -11 -7 -13 -12 -6 -12 22 -1 101 79
113 116 6 20 9 57 6 84 -4 29 -2 49 3 49 6 0 10 -31 10 -69 0 -54 -5 -75 -22
-101 -31 -45 -86 -88 -123 -95 -24 -4 -26 -3 -10 4 11 6 14 10 6 10 -11 1 -11
4 -1 15 10 13 7 15 -17 13 -20 -1 -27 2 -25 13 3 12 1 13 -10 2 -11 -11 -10
-16 6 -28 26 -18 15 -28 -23 -19 -21 4 -31 13 -31 25 0 36 11 50 35 44 13 -3
33 -1 44 6 17 9 19 15 11 30 -5 10 -10 25 -9 32 0 7 5 2 11 -12 9 -21 12 -22
15 -7 9 35 -3 47 -36 37 -30 -8 -36 -4 -32 23 0 4 -5 7 -13 7 -18 0 -40 -26
-27 -34 5 -3 12 0 14 6 3 8 6 6 6 -5 1 -11 6 -15 12 -11 7 4 10 1 7 -6 -2 -8
-10 -16 -18 -18 -7 -3 -10 0 -7 5 3 5 -3 14 -14 21 -16 10 -19 9 -19 -6 0 -10
7 -27 15 -39 13 -19 13 -22 0 -27 -8 -3 -15 -1 -15 4 0 6 -7 10 -16 10 -14 0
-13 -5 5 -36 17 -28 18 -35 6 -30 -41 17 -49 19 -42 10 5 -5 27 -17 50 -26 25
-10 34 -17 22 -17 -36 0 -119 60 -141 101 -20 39 -17 48 5 13 23 -38 65 -77
55 -52 -3 9 -10 17 -14 17 -5 0 -18 15 -29 34 -39 63 -23 161 36 218 41 39 56
45 122 47 42 1 43 0 37 -26z m-229 -175 c-2 -18 -4 -6 -4 27 0 33 2 48 4 33 2
-15 2 -42 0 -60z m233 -60 c0 -4 -5 -8 -11 -8 -5 0 -7 6 -3 13 5 8 2 8 -9 -2
-18 -14 -22 -5 -10 25 6 16 7 16 20 -2 7 -10 13 -21 13 -26z"/>
<path d="M2845 2201 c-11 -5 -26 -6 -34 -3 -9 4 -12 1 -7 -7 4 -6 2 -18 -4
-26 -20 -24 10 -19 37 7 l23 21 0 -26 c0 -31 18 -45 27 -21 4 10 2 19 -5 22
-7 2 -12 8 -12 13 0 6 5 7 10 4 6 -3 10 -1 10 5 0 6 5 8 10 5 6 -4 8 -16 4
-28 -5 -18 -4 -20 7 -9 30 28 -21 61 -66 43z"/>
<path d="M2784 2129 c-3 -6 -2 -15 4 -21 15 -15 46 -5 50 16 4 18 3 19 -13 3
-17 -17 -40 -14 -30 4 4 5 4 9 1 9 -3 0 -8 -5 -12 -11z"/>
<path d="M2671 2171 c-23 -15 -5 -43 26 -39 20 2 28 9 28 23 0 22 -31 31 -54
16z"/>
<path d="M2626 2097 c-33 -27 -32 -56 3 -74 46 -22 96 31 72 76 -15 27 -39 27
-75 -2z m63 -26 c0 -12 -2 -11 -9 4 -8 18 -9 18 -10 -5 0 -21 -2 -22 -10 -8
-14 24 -2 52 16 37 8 -6 14 -19 13 -28z m-39 -22 c0 -17 3 -18 23 -9 21 11 21
10 3 -4 -13 -11 -23 -12 -31 -6 -7 5 -14 7 -17 5 -4 -5 -4 32 1 43 4 11 21
-13 21 -29z"/>
<path d="M2565 2090 c-9 -14 4 -52 16 -45 12 8 12 42 0 50 -5 3 -12 1 -16 -5z"/>
<path d="M2844 2029 c-3 -6 0 -17 8 -25 13 -13 16 -13 27 0 7 8 10 20 6 26 -8
13 -32 13 -41 -1z"/>
<path d="M2547 2013 c-15 -15 -5 -44 18 -55 19 -9 28 -9 37 0 9 9 6 18 -12 37
-25 26 -32 29 -43 18z"/>
<path d="M2780 2010 c0 -10 20 -25 43 -33 14 -5 16 -3 8 12 -10 19 -51 36 -51
21z"/>
<path d="M2614 1999 c-10 -17 13 -36 27 -22 12 12 4 33 -11 33 -5 0 -12 -5
-16 -11z"/>
<path d="M2790 1934 c-20 -51 -10 -65 31 -44 21 12 25 40 7 58 -18 18 -27 15
-38 -14z"/>
<path d="M2572 1923 c2 -10 10 -18 18 -18 8 0 16 8 18 18 2 12 -3 17 -18 17
-15 0 -20 -5 -18 -17z"/>
<path d="M1626 2274 c-20 -19 -20 -38 -1 -58 8 -8 15 -19 15 -25 0 -15 16 -22
35 -15 9 4 14 13 10 22 -3 8 2 20 12 27 15 11 15 17 5 39 -13 30 -51 35 -76
10z m60 -5 c4 -7 0 -15 -8 -20 -10 -5 -14 -18 -10 -34 2 -15 0 -25 -7 -25 -6
0 -11 11 -11 25 0 16 -6 25 -15 25 -20 0 -19 17 3 29 23 14 39 14 48 0z"/>
<path d="M2498 2283 c-62 -7 -113 -89 -75 -121 6 -6 24 -13 38 -17 21 -5 31 0
57 30 35 39 37 47 22 76 -7 13 -7 19 0 19 5 0 10 5 10 10 0 6 -3 9 -7 8 -5 -1
-25 -3 -45 -5z m3 -29 c16 -15 16 -17 -3 -52 -17 -32 -18 -34 -1 -16 10 12 23
30 30 40 9 15 12 15 12 4 1 -43 -74 -85 -105 -59 -20 17 -17 33 12 68 30 36
32 36 55 15z"/>
<path d="M2450 2228 c-11 -18 -20 -37 -20 -43 0 -5 6 -1 12 10 6 11 20 30 31
43 12 12 15 22 9 22 -7 0 -21 -15 -32 -32z"/>
<path d="M166 2235 c-98 -37 -146 -105 -146 -205 0 -99 47 -168 144 -211 80
-35 173 -11 243 63 42 43 53 76 53 151 0 55 -4 69 -35 115 -22 32 -51 60 -76
73 -54 27 -133 33 -183 14z m190 -32 c14 -9 40 -37 57 -62 29 -42 32 -52 31
-117 -2 -80 -16 -111 -70 -158 -27 -22 -46 -29 -92 -31 -33 -2 -69 2 -87 10
-26 12 -27 13 -8 14 40 2 53 61 17 75 -34 13 -67 -31 -44 -59 8 -10 8 -14 -2
-18 -7 -3 2 -11 22 -20 38 -18 27 -23 -14 -7 -30 11 -116 88 -116 102 0 6 19
-8 41 -31 23 -22 46 -41 53 -41 6 1 -6 15 -27 32 -21 17 -44 43 -52 59 -33 63
-8 159 55 213 40 33 66 39 138 34 93 -7 147 -60 159 -157 7 -62 0 -91 -33
-131 -15 -17 -24 -33 -21 -36 3 -3 19 13 36 37 24 33 31 52 31 88 -1 103 -33
161 -112 202 -54 28 -145 17 -196 -23 -53 -42 -74 -81 -82 -151 l-7 -62 -2 53
c-2 84 36 154 103 189 65 34 168 32 222 -4z m-150 -295 c15 -19 16 -20 2 -9
-16 12 -18 11 -18 -8 0 -11 -5 -21 -11 -21 -6 0 -8 7 -5 16 3 8 2 12 -4 9 -6
-3 -10 -1 -10 4 0 6 7 11 16 11 8 0 12 5 9 10 -11 18 1 11 21 -12z"/>
<path d="M193 2183 c-20 -8 -16 -61 5 -72 28 -15 61 -2 68 25 10 41 -28 66
-73 47z m57 -11 c0 -2 -5 -13 -11 -24 -10 -18 -9 -20 5 -15 10 4 15 3 12 -2
-9 -14 -66 -11 -66 4 0 7 7 12 16 11 9 0 18 5 20 12 1 7 0 8 -3 2 -2 -5 -9 -8
-14 -4 -15 9 -1 23 21 21 11 -1 20 -3 20 -5z"/>
<path d="M286 2145 c-7 -19 3 -47 15 -39 5 3 9 -1 9 -8 0 -10 2 -10 9 0 4 8
12 13 17 12 14 -2 17 31 4 44 -10 8 -11 6 -5 -13 5 -16 4 -21 -4 -17 -6 4 -11
14 -11 22 0 19 -26 18 -34 -1z"/>
<path d="M135 2142 c-13 -5 -21 -18 -23 -36 -2 -17 1 -27 8 -24 6 2 10 7 8 11
-2 3 7 14 20 22 36 26 30 40 -13 27z"/>
<path d="M263 2098 c-13 -15 -35 -16 -66 -3 -19 8 -67 -18 -67 -36 0 -19 20
-49 33 -49 7 0 6 4 -3 10 -13 8 -12 10 3 10 9 0 17 5 17 11 0 5 5 7 10 4 8 -5
7 -11 -1 -21 -9 -11 -8 -14 4 -14 20 0 39 33 31 54 -5 12 -1 15 15 13 11 -2
24 -6 27 -10 11 -11 34 -8 34 4 0 5 -4 8 -9 4 -5 -3 -11 5 -13 17 -3 18 -5 19
-15 6z"/>
<path d="M325 2070 c-17 -18 -17 -21 -1 -45 22 -34 63 -34 76 1 13 32 13 30
-6 48 -21 22 -47 20 -69 -4z m45 -1 c0 -5 4 -8 9 -5 8 5 8 -15 1 -34 -1 -3 -2
-9 -1 -13 1 -5 -9 -7 -21 -5 -16 2 -23 10 -24 25 -1 13 3 20 9 16 6 -4 8 0 4
10 -4 11 -1 17 8 17 8 0 15 -5 15 -11z"/>
<path d="M64 2046 c-10 -27 1 -51 25 -54 16 -3 21 0 16 9 -5 7 -4 10 3 5 15
-9 25 10 17 34 -7 24 -53 28 -61 6z"/>
<path d="M247 2033 c-4 -3 -7 -16 -7 -28 0 -19 -5 -21 -46 -19 -44 2 -45 2
-27 -15 12 -13 22 -15 30 -9 7 6 30 10 51 10 52 -1 66 10 58 42 -5 19 -13 26
-30 26 -12 0 -26 -3 -29 -7z"/>
<path d="M99 1971 c-20 -16 -22 -21 -10 -35 19 -23 53 -16 57 10 6 35 -19 48
-47 25z"/>
<path d="M338 1979 c-35 -20 -8 -67 32 -54 24 8 28 50 4 59 -19 7 -15 8 -36
-5z"/>
<path d="M250 1925 c-22 -26 -4 -63 37 -74 35 -10 83 2 69 17 -4 3 -12 0 -18
-6 -20 -20 -29 -13 -13 11 13 21 13 25 -1 45 -17 25 -56 29 -74 7z m69 -44 c1
-11 -2 -11 -14 -1 -14 12 -20 7 -16 -14 1 -5 -5 -4 -13 3 -18 15 -17 48 1 48
7 0 9 -5 5 -12 -4 -6 0 -3 8 6 14 15 16 15 22 0 4 -9 7 -22 7 -30z"/>
<path d="M1850 2231 c-106 -34 -173 -116 -173 -209 0 -143 120 -247 264 -227
79 11 155 86 180 179 12 44 7 70 -27 142 -41 88 -159 143 -244 115z m161 -40
c80 -50 124 -184 83 -251 l-15 -25 6 25 c22 91 16 121 -43 198 -32 42 -68 61
-129 66 -102 8 -213 -91 -213 -193 0 -37 28 -117 46 -132 19 -15 18 -12 -11
45 -14 27 -25 63 -25 80 0 40 43 131 65 139 25 10 27 9 16 -11 -7 -14 -6 -25
5 -40 19 -27 45 -28 69 -2 25 28 7 70 -30 70 -16 0 -24 -4 -20 -11 4 -6 13 -8
20 -5 21 8 25 -39 3 -53 -25 -16 -37 -13 -15 3 18 14 18 14 -1 20 -24 8 -22
44 3 62 28 21 124 18 161 -5 40 -24 78 -75 93 -123 12 -35 7 -76 -16 -135 -5
-11 -3 -14 6 -8 10 6 11 3 2 -13 -12 -23 -72 -72 -87 -72 -5 0 6 10 24 21 18
12 30 24 27 27 -2 3 -14 -3 -26 -13 -15 -14 -38 -20 -87 -21 -37 -2 -57 0 -45
2 12 3 27 12 33 20 7 8 17 14 23 14 6 0 2 -7 -9 -15 -10 -8 -14 -15 -8 -15 20
0 36 28 29 50 -11 34 -56 23 -74 -17 -16 -37 -29 -40 -72 -17 -17 8 -33 13
-36 10 -12 -12 75 -39 142 -44 57 -4 65 -7 41 -13 -33 -9 -113 4 -153 25 -64
33 -103 103 -103 186 0 59 15 93 62 136 51 48 87 63 153 63 49 1 68 -5 106
-28z"/>
<path d="M1920 2172 c0 -4 5 -13 12 -20 8 -8 8 -12 1 -12 -6 0 -14 7 -17 16
-10 26 -25 5 -24 -33 1 -24 -4 -38 -17 -45 -25 -14 -1 -28 33 -19 26 7 43 31
23 31 -6 0 -11 -6 -11 -12 0 -9 -4 -8 -10 2 -13 21 -12 27 6 34 9 4 13 2 8 -5
-4 -8 0 -7 15 0 23 13 28 40 9 59 -14 14 -28 16 -28 4z"/>
<path d="M1965 2106 c-23 -34 -5 -66 35 -66 40 0 58 32 35 66 -8 13 -24 24
-35 24 -11 0 -27 -11 -35 -24z m54 -19 c11 -15 11 -21 1 -30 -10 -9 -12 -8 -7
6 7 19 3 21 -22 8 -14 -8 -17 -5 -17 15 0 28 24 29 45 1z"/>
<path d="M1751 2069 c-13 -10 -18 -19 -12 -19 6 0 11 -9 11 -21 0 -30 22 -18
32 16 10 39 -2 48 -31 24z"/>
<path d="M1807 2042 c-18 -20 -23 -62 -8 -62 6 0 8 8 6 19 -3 15 1 18 18 14
22 -5 22 -5 2 10 -24 20 -6 23 20 3 12 -9 16 -20 12 -35 -4 -18 -3 -20 9 -10
21 17 17 46 -8 63 -28 20 -31 20 -51 -2z"/>
<path d="M1928 2043 c-22 -5 -33 -40 -18 -58 10 -12 9 -15 -9 -15 -14 0 -20
-4 -15 -12 4 -6 3 -8 -4 -5 -12 8 -42 -2 -42 -13 0 -20 46 -14 63 7 10 13 25
23 32 23 16 0 45 27 45 41 0 6 -4 7 -10 4 -5 -3 -7 0 -4 8 6 16 -12 25 -38 20z"/>
<path d="M2011 2017 c-18 -23 -2 -49 28 -45 20 2 26 9 26 28 0 29 -34 40 -54
17z"/>
<path d="M1746 1974 c-20 -19 -20 -29 -1 -48 17 -16 49 -11 38 7 -3 6 -1 7 5
3 16 -10 16 26 0 42 -16 16 -23 15 -42 -4z"/>
<path d="M1969 1951 c-21 -17 -22 -22 -11 -45 16 -35 39 -43 58 -20 9 11 12
13 8 5 -5 -9 -3 -12 4 -7 7 4 12 2 12 -4 0 -6 5 -8 10 -5 6 3 10 11 10 16 0 6
-5 7 -11 3 -7 -4 -9 0 -5 12 7 23 -2 37 -31 52 -17 10 -25 8 -44 -7z m57 -23
c16 -18 17 -20 2 -15 -18 6 -43 -15 -31 -27 4 -4 -1 -4 -11 0 -14 5 -15 9 -4
15 12 8 4 13 -15 10 -5 -1 -5 3 -2 9 4 6 13 9 21 6 8 -3 13 -2 13 2 -4 27 3
27 27 0z"/>
<path d="M1802 1918 c-17 -17 -15 -28 6 -29 14 0 14 -2 -3 -9 -18 -7 -19 -8
-2 -15 21 -9 51 1 43 14 -4 5 0 11 6 14 10 3 10 8 -1 18 -12 12 -13 12 -7 -1
5 -9 2 -8 -7 3 -17 20 -19 21 -35 5z"/>
<path d="M1544 2209 c-3 -6 0 -18 9 -26 18 -18 37 -9 37 18 0 21 -34 27 -46 8z"/>
<path d="M762 2198 c-15 -15 3 -48 27 -48 23 0 35 28 20 46 -14 17 -31 18 -47
2z"/>
<path d="M563 2143 c-13 -5 -18 -45 -7 -56 4 -3 14 1 23 10 15 15 16 15 19 0
5 -22 39 -22 45 1 4 16 5 16 6 0 1 -26 21 -22 21 3 0 18 -5 21 -35 17 -25 -3
-34 0 -31 8 4 9 -18 28 -27 23 -1 0 -8 -3 -14 -6z"/>
<path d="M1413 2143 c-13 -4 -19 -53 -7 -53 3 0 14 5 25 10 15 8 19 7 19 -4 0
-20 33 -13 36 7 1 11 -5 17 -17 17 -11 0 -18 4 -15 9 5 7 -19 24 -27 20 -1 0
-8 -3 -14 -6z"/>
<path d="M2232 2141 c-9 -5 -11 -17 -7 -34 7 -25 8 -25 24 -10 15 15 16 15 19
0 5 -25 42 -22 42 3 0 11 -4 20 -10 20 -5 0 -10 -6 -10 -12 0 -9 -3 -8 -9 2
-6 8 -8 17 -5 21 2 4 -3 10 -12 13 -19 7 -16 7 -32 -3z"/>
<path d="M1500 2107 c0 -20 4 -23 35 -19 19 2 35 8 35 12 0 14 -32 20 -46 9
-12 -10 -13 -9 -8 5 3 9 1 16 -5 16 -6 0 -11 -10 -11 -23z"/>
<path d="M680 2101 c0 -22 23 -22 43 -2 10 11 8 13 -11 8 -12 -3 -20 -1 -16 4
3 5 0 9 -5 9 -6 0 -11 -9 -11 -19z"/>
<path d="M2350 2105 c0 -8 9 -15 19 -15 26 0 35 16 15 24 -25 10 -34 7 -34 -9z"/>
<path d="M1310 2065 c0 -2 5 -16 12 -30 9 -20 17 -25 35 -20 17 4 21 2 17 -10
-3 -8 -10 -12 -15 -9 -5 3 -9 -2 -9 -10 0 -9 7 -16 15 -16 8 0 15 -4 15 -10 0
-5 5 -10 10 -10 6 0 10 15 10 33 0 32 -9 42 -67 74 -13 6 -23 10 -23 8z"/>
<path d="M580 2021 c-14 -9 -31 -22 -38 -28 -7 -7 -19 -13 -25 -13 -8 0 -7 -3
2 -9 11 -7 9 -10 -8 -16 -12 -3 -18 -11 -15 -17 4 -6 10 -6 17 1 15 15 30 14
21 -1 -5 -7 3 -6 16 4 17 11 24 24 22 40 -1 18 0 20 7 8 8 -12 11 -11 17 5 4
11 12 23 17 26 5 4 5 9 1 12 -5 2 -20 -3 -34 -12z"/>
<path d="M714 2025 c-8 -20 13 -45 37 -45 23 0 24 9 3 38 -18 26 -32 28 -40 7z"/>
<path d="M1594 2022 c-11 -7 -34 -45 -34 -56 0 -3 11 -6 25 -6 26 0 62 41 50
60 -7 12 -25 13 -41 2z"/>
<path d="M2166 2011 c-9 -14 26 -51 52 -56 26 -5 29 11 6 43 -15 22 -48 30
-58 13z"/>
<path d="M632 1949 c-61 -112 -127 -217 -150 -238 -44 -40 -5 -67 139 -95 90
-18 134 1 94 40 -9 10 -15 35 -15 67 -1 38 -22 224 -29 255 -3 12 -25 -4 -39
-29z m38 -46 c0 -23 -6 -36 -22 -45 -13 -7 -26 -11 -30 -10 -5 1 -8 -2 -8 -8
0 -14 10 -13 43 5 l28 14 -3 -42 c-3 -38 -5 -42 -30 -42 -15 -1 -31 -5 -35 -9
-4 -5 11 -6 34 -3 l41 5 4 -54 c4 -63 -5 -70 -80 -59 -70 9 -83 15 -91 37 -7
18 -8 19 -14 5 -10 -26 44 -48 129 -54 41 -3 74 -10 74 -16 0 -13 -100 -1
-165 19 -53 17 -93 44 -65 44 8 0 28 23 43 50 30 54 33 57 35 38 4 -63 26
-108 53 -108 15 0 20 5 17 23 -2 15 -10 22 -25 21 -12 0 -25 6 -28 14 -5 15 6
14 64 -4 18 -5 22 -4 19 7 -3 8 -15 13 -27 12 -17 -2 -25 5 -33 27 -5 17 -17
30 -25 30 -8 0 -12 4 -9 9 8 12 46 2 46 -13 0 -6 5 -4 10 4 9 13 12 13 21 -2
15 -26 32 -23 18 3 -7 13 -17 19 -29 16 -11 -3 -21 1 -24 10 -3 8 -11 11 -17
7 -8 -4 -7 0 1 15 9 18 14 20 26 10 13 -11 18 -6 15 15 -1 5 5 6 14 3 8 -4 15
-1 15 4 0 7 -11 9 -25 7 -30 -6 -31 -4 -4 39 25 39 39 31 39 -24z"/>
<path d="M640 1684 c0 -33 33 -30 38 4 3 17 -2 22 -17 22 -16 0 -21 -6 -21
-26z"/>
<path d="M2284 1933 c-81 -142 -127 -214 -147 -228 -17 -12 -19 -19 -11 -32
14 -23 105 -52 186 -60 76 -7 93 7 64 49 -10 13 -16 45 -17 78 -1 88 -23 233
-36 237 -6 2 -24 -17 -39 -44z m59 -131 c15 -169 17 -167 -103 -141 -37 8 -54
17 -59 32 -7 17 -8 18 -14 4 -10 -26 46 -49 127 -52 39 -1 71 -7 71 -11 0 -24
-202 13 -226 42 -9 11 -8 14 2 14 8 0 28 23 44 51 20 33 31 45 33 34 3 -13 7
-14 18 -4 19 16 18 29 -3 29 -12 0 -14 3 -7 10 13 13 44 3 44 -14 0 -6 5 -4
10 4 9 13 12 13 21 -2 14 -25 28 -22 22 3 -4 16 -12 20 -29 16 -17 -3 -24 0
-24 10 0 9 -6 13 -15 9 -12 -4 -13 -2 -2 14 15 25 29 26 25 3 -2 -13 3 -17 17
-15 28 5 39 18 31 37 -4 12 -14 16 -30 13 -18 -4 -23 -1 -19 9 3 8 13 11 24 8
13 -5 19 -1 19 10 0 11 -5 15 -15 11 -12 -4 -13 -2 -3 14 7 11 16 16 20 12 4
-4 13 -71 21 -150z"/>
<path d="M2241 1767 c-11 -14 -7 -18 25 -32 39 -16 70 -13 59 6 -4 6 -17 8
-30 5 -16 -4 -25 0 -31 15 -9 19 -11 19 -23 6z"/>
<path d="M2270 1768 c0 -4 16 -8 35 -8 19 0 35 3 35 8 0 4 -16 7 -35 8 -19 0
-35 -3 -35 -8z"/>
<path d="M2240 1711 c-8 -5 -18 -7 -22 -5 -4 3 -13 2 -19 -2 -8 -4 -7 -9 2
-15 7 -4 19 -3 25 2 8 6 14 5 18 -6 9 -25 43 -19 42 7 -1 25 -23 33 -46 19z"/>
<path d="M2307 1697 c-7 -19 8 -41 22 -33 16 10 14 46 -3 46 -8 0 -16 -6 -19
-13z"/>
<path d="M735 1948 l-28 -22 23 -8 c32 -12 77 17 59 38 -15 19 -21 18 -54 -8z"/>
<path d="M1439 1854 c-41 -65 -87 -130 -104 -147 l-29 -29 23 -19 c55 -45 250
-73 271 -39 5 8 5 19 0 25 -4 5 -13 44 -19 85 -10 64 -35 187 -47 228 -7 26
-23 8 -95 -104z m91 82 c0 -8 -8 -17 -17 -21 -16 -6 -15 -8 5 -16 26 -10 29
-29 5 -29 -15 0 -16 -2 -3 -10 13 -8 12 -10 -2 -10 -10 0 -18 -4 -18 -10 0 -5
-9 -10 -21 -10 -27 0 -51 -24 -43 -44 4 -10 -6 -27 -25 -47 -34 -34 -39 -49
-15 -49 9 0 14 6 11 13 -3 8 -1 20 5 28 8 11 9 10 4 -4 -4 -14 -1 -18 11 -15
9 2 18 10 20 18 4 13 3 13 -7 0 -10 -13 -11 -13 -7 0 2 8 10 14 17 12 9 -2 11
7 6 33 -7 35 -7 35 29 35 25 0 34 4 29 12 -5 7 -3 8 5 4 8 -5 14 0 18 15 5 17
10 6 20 -45 14 -66 13 -69 -7 -91 -24 -26 -60 -23 -60 4 0 10 -7 18 -15 18 -8
0 -15 -6 -15 -14 0 -7 -10 -18 -22 -23 -20 -9 -18 -10 12 -6 38 4 74 -9 65
-25 -10 -16 -74 -10 -115 11 -22 11 -40 23 -40 26 0 23 103 180 108 165 6 -17
32 -13 32 4 0 8 -7 15 -15 15 -12 0 -11 7 7 35 24 37 38 44 38 21z m-143 -272
c43 -23 57 -25 126 -22 60 4 77 2 77 -9 0 -34 -212 -3 -255 38 -27 27 -5 24
52 -7z"/>
<path d="M1520 1802 c0 -7 -5 -10 -11 -6 -7 4 -10 1 -7 -7 3 -8 13 -13 22 -13
21 2 20 -3 -4 -16 -16 -8 -20 -8 -18 2 2 7 -3 12 -10 10 -8 -1 -11 2 -7 8 3 5
1 10 -4 10 -17 0 -13 -40 5 -47 17 -6 64 12 64 25 0 14 -29 48 -30 34z"/>
<path d="M2422 1958 c-13 -13 2 -38 23 -38 18 0 26 25 12 39 -14 14 -20 14
-35 -1z"/>
<path d="M2145 1923 c-16 -15 -16 -17 0 -26 20 -11 65 9 65 30 0 19 -45 16
-65 -4z"/>
<path d="M1584 1916 c-9 -24 4 -48 23 -44 24 4 24 52 0 56 -9 2 -20 -4 -23
-12z"/>
<path d="M2965 1908 c-3 -7 -3 -28 -1 -45 2 -18 -1 -33 -6 -33 -6 0 -8 9 -5
20 3 11 1 20 -5 20 -5 0 -8 -10 -6 -22 2 -15 11 -24 26 -26 23 -4 31 13 10 21
-10 4 -10 8 1 15 7 5 10 15 7 21 -4 6 -2 11 3 11 6 0 11 7 11 15 0 18 -29 20
-35 3z"/>
<path d="M485 1894 c-20 -15 -20 -15 -1 -30 11 -8 15 -14 10 -14 -6 0 -15 5
-21 11 -8 8 -15 3 -27 -19 -19 -37 -20 -46 -3 -35 6 4 18 8 26 10 22 3 38 25
44 61 7 36 2 39 -28 16z"/>
<path d="M1336 1894 c-7 -19 10 -44 30 -44 20 0 36 34 22 48 -17 17 -45 15
-52 -4z"/>
<path d="M2422 1851 c-9 -25 -6 -36 16 -70 37 -58 44 -53 33 22 0 4 -10 7 -22
7 -11 0 -18 4 -14 10 3 5 12 7 20 3 9 -3 15 1 15 11 0 9 -4 16 -10 16 -5 0
-10 7 -10 15 0 25 -17 17 -28 -14z"/>
<path d="M772 1846 c4 -18 0 -26 -14 -30 -25 -6 -21 -49 6 -54 23 -5 40 12 32
33 -4 13 -10 14 -26 5 -11 -6 -20 -8 -20 -5 0 3 16 13 35 21 44 18 50 54 9 54
-22 0 -26 -4 -22 -24z"/>
<path d="M1627 1864 c-13 -13 -7 -52 9 -58 22 -9 46 13 42 38 -3 21 -37 34
-51 20z"/>
<path d="M2113 1838 c-33 -37 -35 -56 -7 -50 27 5 29 7 38 45 8 33 -4 35 -31
5z"/>
<path d="M1212 1807 c-23 -23 -42 -47 -42 -53 0 -5 -24 -33 -53 -62 -41 -40
-60 -52 -83 -52 -45 0 -124 -64 -124 -101 0 -25 40 -67 72 -74 38 -9 108 60
108 108 0 23 13 48 45 90 25 31 51 57 58 57 18 0 95 81 99 105 6 38 -34 29
-80 -18z m68 20 c0 -21 -87 -101 -95 -87 -10 16 53 80 71 73 10 -4 12 0 8 11
-3 9 -1 16 5 16 6 0 11 -6 11 -13z m-159 -163 c-42 -48 -45 -53 -41 -92 2 -32
-71 -105 -96 -96 -29 11 -64 46 -64 65 0 9 16 31 35 48 39 34 58 42 32 13 -10
-10 -14 -22 -10 -25 10 -11 33 13 33 34 0 15 7 19 33 19 25 0 42 9 72 40 53
54 56 51 6 -6z"/>
<path d="M1000 1575 c-9 -11 -16 -12 -25 -5 -8 7 -17 4 -30 -10 -17 -19 -17
-20 -1 -20 9 0 14 -4 11 -10 -3 -5 -1 -10 4 -10 14 0 14 13 1 26 -7 7 -2 10
14 10 22 0 23 -2 10 -20 -18 -27 -18 -40 2 -32 8 3 12 2 9 -4 -14 -23 13 -8
44 24 32 33 32 34 12 41 -12 3 -21 11 -21 16 0 14 -16 11 -30 -6z"/>
<path d="M32 1804 c-24 -16 -30 -60 -9 -67 9 -3 9 -7 -2 -20 -7 -9 -11 -24 -7
-32 8 -21 43 -19 56 5 6 11 16 17 26 13 19 -7 54 24 54 49 0 25 -47 68 -74 68
-12 0 -32 -7 -44 -16z m86 -16 c7 -7 12 -25 12 -42 0 -28 -1 -29 -14 -11 -12
16 -16 17 -30 6 -9 -7 -16 -19 -16 -26 0 -20 -29 -40 -41 -28 -6 6 -3 18 11
35 26 33 25 48 -1 48 -18 0 -19 2 -9 15 15 18 71 20 88 3z"/>
<path d="M1313 1789 c-24 -12 -40 -25 -37 -30 3 -5 -2 -9 -10 -9 -9 0 -16 -4
-16 -10 0 -5 13 -10 29 -10 22 0 37 10 61 40 36 46 32 48 -27 19z"/>
<path d="M2882 1720 c-2 -103 0 -105 76 -70 35 16 42 24 42 48 0 21 -10 37
-40 61 -22 18 -45 29 -50 26 -6 -4 -9 -1 -8 6 2 6 -2 13 -8 16 -7 2 -11 -27
-12 -87z m38 40 c0 -5 7 -6 17 -3 11 4 14 3 9 -5 -4 -7 -3 -12 3 -12 5 0 9 -9
8 -20 -1 -11 -7 -20 -13 -20 -6 0 -11 7 -10 16 0 9 -6 19 -14 21 -13 4 -13 3
0 -6 18 -12 9 -24 -13 -15 -13 4 -14 10 -7 24 7 13 6 20 -3 23 -7 3 -5 6 6 6
9 1 17 -3 17 -9z m57 -81 c-10 -14 -17 -17 -22 -9 -5 8 -11 5 -21 -7 -8 -10
-13 -13 -12 -8 2 6 -1 10 -7 10 -5 0 -9 -5 -7 -12 2 -7 -1 -13 -6 -13 -13 0
-11 34 2 42 8 5 7 8 -1 8 -7 0 -13 5 -13 11 0 8 4 8 14 -1 18 -14 61 -10 62 8
3 25 5 27 15 9 7 -12 6 -23 -4 -38z"/>
<path d="M870 1776 c0 -41 44 -73 56 -41 7 17 -10 41 -38 56 -15 8 -18 6 -18
-15z"/>
<path d="M1677 1762 c-20 -21 -22 -43 -6 -59 8 -8 7 -17 -3 -32 -11 -18 -11
-23 2 -31 23 -15 38 -12 50 11 7 13 17 18 27 15 21 -8 53 21 53 49 0 53 -88
86 -123 47z m88 -16 c17 -17 23 -31 18 -42 -4 -11 -8 -13 -11 -6 -8 24 -40 12
-51 -18 -7 -20 -17 -30 -30 -30 -26 0 -27 12 -1 35 27 24 25 45 -2 45 l-23 1
24 19 c31 26 47 25 76 -4z"/>
<path d="M317 1763 c-13 -12 -7 -41 10 -47 23 -9 47 22 32 41 -12 14 -32 17
-42 6z"/>
<path d="M389 1754 c-15 -18 -2 -47 24 -52 25 -5 40 33 21 52 -19 20 -28 20
-45 0z"/>
<path d="M2520 1737 c0 -27 33 -62 49 -52 17 10 13 33 -9 55 -26 26 -40 25
-40 -3z"/>
<path d="M2783 1728 c6 -44 -15 -84 -50 -91 -15 -3 -37 -12 -48 -20 -19 -15
-19 -16 -1 -36 53 -58 147 13 130 98 -4 18 -2 37 5 45 10 12 8 17 -8 25 -30
17 -34 14 -28 -21z m12 -118 c-5 -8 -11 -6 -21 7 -14 17 -15 17 -13 -2 2 -36
-1 -45 -16 -45 -12 0 -13 5 -4 27 17 46 30 56 47 39 8 -8 11 -19 7 -26z m-65
-4 c0 -18 -27 -29 -36 -14 -4 5 0 14 7 19 20 13 29 11 29 -5z"/>
<path d="M1001 1737 c-14 -14 -14 -30 1 -21 7 4 8 3 4 -5 -4 -6 -11 -9 -16 -6
-5 3 -14 -4 -20 -15 -9 -16 -8 -20 5 -20 23 0 66 25 92 52 l21 24 -38 1 c-20
1 -42 -3 -49 -10z"/>
<path d="M1965 1724 c-18 -19 -4 -44 25 -44 24 0 32 26 14 45 -19 19 -19 19
-39 -1z"/>
<path d="M2634 1715 c-9 -13 -12 -30 -8 -36 4 -7 3 -9 -4 -5 -6 3 -13 2 -16
-3 -4 -5 -2 -12 2 -15 13 -8 92 34 92 49 0 6 10 17 23 22 19 9 15 10 -26 11
-39 1 -50 -3 -63 -23z"/>
<path d="M162 1714 c-25 -17 -28 -36 -9 -56 6 -8 17 -23 23 -33 14 -26 38 -26
42 0 2 11 11 28 19 37 14 16 14 20 -1 43 -19 29 -42 32 -74 9z m58 -4 c13 -9
13 -12 -3 -21 -14 -8 -17 -18 -12 -41 5 -23 4 -29 -6 -26 -8 3 -14 15 -14 29
0 17 -5 24 -17 23 -37 -3 -6 40 32 45 3 0 12 -4 20 -9z"/>
<path d="M805 1721 c-3 -6 -4 -15 -1 -20 4 -5 1 -22 -4 -37 -17 -44 -5 -74 29
-74 43 0 60 9 75 39 18 33 6 56 -31 66 -16 3 -35 13 -45 21 -11 10 -18 12 -23
5z m40 -69 c10 -23 15 -45 11 -49 -12 -13 -29 16 -36 62 -8 52 -2 49 25 -13z
m28 11 c20 -17 20 -17 13 2 -5 14 -4 17 3 10 10 -10 4 -55 -8 -55 -3 0 -14 14
-23 30 -19 34 -14 38 15 13z"/>
<path d="M2037 1723 c-22 -22 7 -68 36 -57 21 8 30 34 16 50 -12 15 -41 19
-52 7z"/>
<path d="M1806 1671 c-17 -19 -15 -61 4 -61 4 0 10 -9 13 -20 6 -25 47 -28 47
-3 0 9 7 24 15 33 12 13 13 23 6 44 -13 32 -59 36 -85 7z m70 -2 c4 -7 -1 -16
-10 -21 -13 -7 -16 -17 -11 -39 4 -18 3 -29 -4 -29 -6 0 -11 12 -11 26 0 17
-6 28 -20 31 -25 7 -26 19 -2 32 23 14 49 14 58 0z"/>
<path d="M2470 1666 c0 -14 -5 -37 -10 -52 -13 -34 10 -74 44 -74 35 0 78 45
74 77 -2 22 -10 29 -38 37 -19 5 -39 16 -43 23 -13 21 -27 15 -27 -11z m72
-31 c23 9 30 -9 18 -41 l-11 -28 -24 40 c-26 41 -34 37 -10 -6 18 -32 18 -40
1 -40 -16 0 -20 11 -31 75 l-7 40 25 -23 c14 -13 30 -20 39 -17z"/>
<path d="M291 1656 c-12 -13 -24 -39 -28 -59 -5 -31 -1 -40 25 -67 41 -41 88
-41 126 -1 l28 29 -41 7 c-23 4 -44 11 -47 16 -3 6 6 7 23 3 50 -12 74 -24 69
-33 -9 -14 16 -29 82 -47 50 -14 65 -15 75 -5 24 25 -64 71 -135 71 -24 0 -28
4 -28 30 0 71 -100 109 -149 56z m114 -11 c32 -31 34 -69 4 -60 -12 4 -30 16
-41 27 -22 22 -36 20 -55 -9 -20 -30 7 -57 48 -48 19 4 29 3 29 -5 0 -6 5 -8
11 -4 7 4 10 1 7 -7 -3 -8 -12 -13 -21 -13 -9 1 -14 -2 -11 -7 3 -5 -4 -9 -16
-9 -12 0 -18 4 -15 10 3 6 -1 7 -10 4 -46 -18 -74 87 -34 127 27 27 74 24 104
-6z m-48 -43 c-13 -3 -17 -10 -14 -23 3 -13 1 -19 -6 -16 -17 5 -21 38 -6 47
7 5 19 5 28 2 14 -6 13 -7 -2 -10z"/>
<path d="M1203 1673 c-22 -8 9 -43 39 -43 34 0 43 14 22 34 -15 16 -37 19 -61
9z"/>
<path d="M11 1625 c-4 -5 -4 -25 1 -43 10 -38 71 -86 130 -104 35 -10 41 -9
61 10 17 18 19 26 11 40 -6 9 -19 19 -29 21 -10 1 -29 16 -43 32 -42 50 -109
73 -131 44z m88 -22 c16 -10 35 -28 40 -40 6 -13 17 -23 26 -23 8 0 15 -7 15
-15 0 -8 -5 -15 -11 -15 -5 0 -7 5 -3 12 5 7 3 8 -5 4 -7 -5 -10 -15 -6 -24 3
-9 2 -13 -2 -8 -4 4 -8 18 -8 29 0 12 -5 21 -12 20 -7 -2 -10 4 -7 12 4 8 1
15 -5 15 -20 0 -25 -32 -8 -42 10 -5 17 -14 17 -21 0 -9 -2 -9 -8 1 -5 7 -19
14 -31 17 -42 8 -76 50 -65 79 8 21 35 20 73 -1z"/>
<path d="M1941 1621 c-41 -41 -41 -113 -1 -142 44 -32 74 -33 107 -5 l30 25
38 -19 c47 -24 123 -36 137 -22 24 24 -121 84 -153 63 -13 -7 -29 -6 -61 4
-38 13 -11 12 32 0 13 -4 15 3 12 34 -5 48 -28 71 -80 78 -31 4 -44 1 -61 -16z
m59 -6 c0 -8 5 -15 11 -15 5 0 7 5 4 10 -10 16 17 11 37 -7 22 -20 24 -63 3
-63 -8 0 -23 9 -32 20 -29 33 -73 20 -73 -22 0 -18 41 -35 59 -24 5 4 14 -2
20 -11 6 -10 11 -12 11 -5 0 6 5 12 12 12 6 0 3 -9 -7 -20 -39 -43 -125 -8
-125 51 0 17 3 28 8 26 4 -3 15 6 25 19 10 13 15 24 11 24 -4 0 -13 -8 -20
-17 -7 -10 -14 -13 -14 -6 0 14 39 43 57 43 7 0 13 -7 13 -15z m5 -55 c3 -5
-1 -10 -10 -10 -11 0 -15 -5 -11 -15 3 -8 1 -15 -4 -15 -14 0 -22 19 -16 35 6
17 32 20 41 5z"/>
<path d="M2981 1607 c-7 -10 -20 -17 -27 -17 -8 0 -23 -9 -35 -21 -15 -15 -18
-24 -9 -34 15 -19 44 -8 69 26 25 34 27 75 2 46z m-16 -47 c-19 -21 -45 -27
-45 -10 0 11 30 29 49 30 11 0 10 -5 -4 -20z"/>
<path d="M1659 1588 c-6 -66 61 -133 144 -144 39 -6 47 -4 56 14 14 27 4 51
-25 58 -13 3 -24 10 -24 14 0 5 -19 22 -42 39 -44 32 -107 43 -109 19z m82
-19 c39 -20 40 -21 24 -39 -15 -16 -15 -22 -5 -35 7 -8 19 -15 26 -15 8 0 14
-5 14 -11 0 -7 -10 -5 -25 5 -14 9 -29 15 -34 12 -4 -3 -22 10 -40 28 -28 29
-31 37 -22 55 14 26 13 26 62 0z m80 -69 c0 10 2 11 6 2 2 -6 10 -9 15 -6 7 4
8 2 4 -4 -10 -16 -31 -15 -46 3 -7 8 -16 12 -21 9 -5 -3 -6 2 -2 12 5 14 8 13
24 -7 13 -17 19 -20 20 -9z"/>
<path d="M2163 1593 c-28 -5 -29 -15 -5 -35 55 -46 124 -50 172 -9 43 36 33
51 -14 22 l-35 -22 -44 25 c-24 14 -46 25 -48 25 -2 -1 -14 -4 -26 -6z m92
-42 c37 -20 38 -21 12 -21 -34 0 -97 25 -97 39 0 14 40 6 85 -18z"/>
<path d="M743 1568 c1 -13 11 -35 21 -50 14 -22 17 -38 11 -77 -8 -60 3 -85
50 -106 32 -16 36 -16 64 1 27 16 31 24 31 60 0 57 -43 142 -76 150 -14 4 -27
4 -31 1 -3 -3 -15 5 -28 19 -28 30 -47 31 -42 2z m47 -33 c0 -18 48 -55 71
-55 45 0 66 -105 27 -129 -26 -16 -74 -5 -93 22 -23 33 -19 40 37 65 28 12 49
25 46 28 -3 3 -21 -4 -39 -15 -44 -27 -46 -27 -41 10 3 22 -2 37 -18 54 -12
13 -19 28 -15 34 8 14 25 4 25 -14z m70 -24 c9 -17 7 -18 -17 -12 -32 9 -43
31 -14 31 11 0 25 -9 31 -19z"/>
<path d="M826 1417 c-18 -13 -13 -47 8 -47 21 1 49 29 43 45 -8 18 -27 19 -51
2z"/>
<path d="M1148 1553 c-16 -20 -28 -43 -28 -50 0 -22 19 -53 34 -53 21 0 56 45
56 73 0 14 4 28 10 32 16 10 -1 35 -24 35 -12 -1 -32 -16 -48 -37z m40 -16
c14 -16 -7 -62 -28 -62 -19 0 -25 42 -10 61 15 17 24 18 38 1z"/>
<path d="M1276 1583 c-3 -4 4 -17 16 -30 17 -18 32 -23 75 -23 49 0 55 -2 73
-32 11 -18 22 -37 24 -43 2 -5 7 -7 11 -3 11 10 -8 73 -22 73 -6 0 -15 3 -19
8 -4 4 -32 7 -61 7 -34 0 -52 4 -48 10 3 6 -2 10 -11 10 -13 0 -15 3 -7 11 16
16 87 2 118 -23 14 -10 25 -15 25 -10 0 22 -57 47 -112 49 -31 1 -59 -1 -62
-4z"/>
<path d="M1530 1561 c-30 -8 -36 -54 -8 -59 12 -2 15 2 11 16 -2 11 1 23 8 27
8 5 10 4 5 -3 -4 -7 -3 -12 3 -12 5 0 13 5 17 11 4 8 9 7 15 -2 10 -17 23 -5
16 16 -7 16 -25 18 -67 6z"/>
<path d="M644 1545 c-7 -18 3 -35 21 -35 18 0 26 15 19 34 -8 20 -33 21 -40 1z"/>
<path d="M2397 1553 c-12 -11 -7 -24 6 -17 8 5 7 2 -2 -9 -12 -15 -11 -21 9
-42 20 -21 22 -30 15 -80 -7 -63 10 -105 45 -105 10 0 21 -4 25 -10 7 -11 33
-3 58 18 22 19 24 104 2 122 -8 7 -15 20 -15 30 0 24 -32 50 -63 50 -15 0 -33
10 -45 25 -21 27 -25 29 -35 18z m53 -66 c10 -21 23 -33 40 -35 43 -6 70 -40
70 -87 0 -34 -5 -44 -24 -55 -40 -21 -106 15 -106 58 0 11 58 37 66 29 3 -3
-4 -10 -15 -17 -17 -9 -19 -15 -11 -30 9 -17 14 -18 35 -8 29 13 32 30 9 49
-14 12 -14 14 2 26 26 19 9 16 -36 -7 l-40 -20 6 29 c5 22 0 37 -15 57 -11 14
-18 30 -15 35 9 16 19 9 34 -24z m60 -12 c10 -12 9 -15 -8 -15 -11 0 -25 7
-32 15 -10 12 -9 15 8 15 11 0 25 -7 32 -15z"/>
<path d="M2625 1550 c-40 -7 -63 -48 -47 -84 26 -58 114 -40 120 25 4 44 -26
68 -73 59z m65 -54 c0 -31 -19 -46 -57 -46 -38 0 -55 23 -42 58 11 29 33 29
23 0 -6 -20 -5 -21 9 -10 10 9 17 10 22 2 3 -6 11 -8 16 -4 6 4 6 10 0 18 -6
7 -8 16 -4 19 11 11 33 -14 33 -37z"/>
<path d="M2802 1518 c-33 -43 -37 -55 -26 -82 15 -40 84 -3 84 45 0 13 4 31
10 39 10 16 -4 40 -24 40 -6 0 -26 -19 -44 -42z m37 -17 c11 -7 11 -13 -1 -37
-7 -16 -20 -29 -28 -29 -19 0 -25 41 -10 61 14 16 20 17 39 5z"/>
<path d="M1570 1522 c0 -2 10 -12 23 -23 14 -12 16 -17 6 -13 -18 6 -35 -11
-20 -20 19 -12 42 6 39 32 -2 18 -9 26 -25 27 -13 1 -23 0 -23 -3z"/>
<path d="M705 1490 c-22 -10 -66 -28 -97 -40 -32 -12 -58 -25 -58 -29 0 -4 21
-29 47 -55 31 -31 54 -45 65 -42 10 2 16 0 12 -5 -3 -5 2 -9 11 -9 8 0 19 10
24 23 15 40 43 156 39 166 -1 5 -21 0 -43 -9z m0 -34 c7 3 16 0 21 -7 4 -7 3
-10 -4 -5 -6 3 -13 2 -17 -4 -3 -5 -1 -10 4 -10 6 0 11 -5 11 -11 0 -5 -5 -7
-12 -3 -8 5 -9 2 -5 -9 3 -10 2 -17 -2 -17 -5 0 -16 -3 -25 -6 -12 -5 -16 0
-16 20 0 14 -4 26 -10 26 -11 0 -12 -15 -4 -47 4 -13 11 -20 17 -16 6 4 7 1 3
-8 -4 -8 0 -5 8 5 13 17 18 18 29 6 10 -10 9 -11 -2 -5 -11 6 -13 4 -8 -8 4
-12 1 -17 -11 -16 -23 1 -70 17 -54 18 6 1 12 6 12 12 0 6 -6 9 -13 6 -16 -6
-26 0 -47 28 -8 11 -10 17 -6 13 5 -4 15 0 22 10 8 10 13 12 14 5 0 -20 17
-15 23 6 4 18 49 34 55 19 2 -4 9 -5 17 -2z"/>
<path d="M1254 1485 c3 -8 -2 -19 -12 -24 -14 -8 -17 -24 -17 -86 0 -70 2 -75
20 -73 10 2 30 18 42 37 29 43 30 95 3 118 -11 10 -20 23 -20 30 0 7 -5 13
-11 13 -6 0 -9 -7 -5 -15z m27 -62 c0 -15 2 -15 9 2 8 18 9 17 9 -7 1 -19 -4
-28 -14 -28 -8 0 -15 -4 -15 -9 0 -5 -3 -18 -6 -28 -3 -10 2 -7 10 7 8 14 15
20 16 13 0 -7 -11 -25 -25 -40 l-25 -28 3 42 c1 22 6 39 10 36 5 -3 8 1 6 8
-3 28 1 49 11 49 6 0 10 -8 11 -17z"/>
<path d="M0 1476 c0 -9 5 -16 10 -16 12 0 14 -36 2 -43 -4 -2 -1 -2 6 -1 18 5
15 -16 -4 -23 -24 -9 36 -44 64 -36 25 6 29 31 7 40 -14 5 -13 8 4 20 11 7 18
20 15 28 -7 18 -45 20 -62 3 -9 -9 -12 -8 -12 4 0 8 -7 21 -15 28 -12 10 -15
10 -15 -4z m90 -38 c0 -9 -40 -31 -46 -25 -3 2 -2 11 2 20 6 15 44 20 44 5z
m0 -58 c0 -5 -14 -10 -31 -10 -17 0 -28 4 -24 10 3 6 17 10 31 10 13 0 24 -4
24 -10z"/>
<path d="M467 1460 c-14 -32 -14 -37 1 -65 10 -16 22 -34 28 -40 7 -5 14 -17
17 -25 8 -23 6 61 -3 95 -4 17 -9 26 -10 20 -1 -5 -6 4 -10 20 l-7 30 -16 -35z
m24 -30 c5 0 9 -7 9 -15 0 -8 -6 -15 -13 -15 -9 0 -14 12 -14 33 0 17 2 24 4
15 3 -10 9 -18 14 -18z"/>
<path d="M240 1446 c-104 -21 -135 -43 -55 -39 22 1 72 4 110 6 69 3 132 28
119 48 -8 13 -57 9 -174 -15z m144 -1 c-17 -13 -125 -23 -112 -10 6 6 82 22
112 24 20 1 20 1 0 -14z"/>
<path d="M2348 1449 c-21 -11 -38 -17 -38 -14 0 3 -17 -4 -37 -15 -21 -11 -43
-20 -50 -20 -26 0 -21 -20 17 -63 42 -47 95 -76 109 -61 20 21 59 194 44 194
-4 -1 -25 -10 -45 -21z m27 -39 c8 -13 -6 -40 -18 -33 -7 4 -8 0 -4 -11 5 -14
3 -17 -8 -12 -8 3 -15 1 -15 -4 0 -6 8 -10 18 -10 13 0 14 -2 3 -9 -8 -5 -10
-14 -6 -21 5 -9 4 -11 -3 -6 -7 4 -12 2 -12 -5 0 -7 -13 3 -30 21 -18 20 -30
28 -31 19 0 -8 -3 -9 -5 -3 -9 21 25 82 48 86 27 4 56 -1 63 -12z"/>
<path d="M2294 1373 c3 -21 5 -41 6 -45 0 -12 30 -10 30 1 0 6 -4 13 -10 16
-5 3 -10 11 -10 16 0 6 4 8 9 4 5 -3 12 -1 15 4 3 5 -4 11 -15 14 -12 3 -18
10 -14 16 3 6 1 11 -5 11 -8 0 -10 -13 -6 -37z"/>
<path d="M2906 1446 c3 -8 -3 -17 -14 -20 -18 -6 -20 -15 -19 -86 2 -81 8 -92
39 -67 52 42 63 114 23 160 -26 30 -37 35 -29 13z m-4 -73 l1 -38 4 38 c5 40
23 51 24 15 0 -22 1 -22 9 -3 7 17 9 16 9 -10 1 -32 -32 -95 -49 -95 -5 0 -9
15 -9 33 1 17 -2 47 -6 65 -5 21 -4 32 4 32 6 0 12 -17 13 -37z"/>
<path d="M1514 1435 c-4 -9 0 -23 8 -31 20 -20 50 -7 46 20 -4 26 -45 35 -54
11z"/>
<path d="M1627 1443 c-4 -3 -7 -17 -7 -29 0 -24 33 -50 50 -39 6 3 10 2 10 -3
0 -6 -14 -15 -31 -21 -33 -11 -32 -25 2 -34 16 -4 19 -2 14 11 -5 14 -4 15 6
5 19 -19 68 -16 76 3 3 9 0 20 -8 26 -11 7 -11 11 -1 15 17 7 15 42 -2 49 -8
3 -23 1 -33 -5 -15 -7 -22 -5 -31 10 -12 19 -33 25 -45 12z m43 -44 c0 -11 -4
-19 -9 -19 -16 0 -33 30 -27 46 5 13 9 14 21 4 8 -7 15 -21 15 -31z m67 -2
c-2 -6 -13 -14 -25 -18 -16 -6 -22 -5 -22 5 0 14 14 23 38 23 7 0 11 -5 9 -10z
m-2 -47 c8 -13 -20 -24 -42 -16 -15 6 -15 8 -3 16 20 13 37 12 45 0z"/>
<path d="M2127 1443 c-4 -6 -4 -19 -1 -30 5 -15 4 -15 -5 -3 -6 8 -11 13 -12
10 0 -3 -2 -13 -4 -23 -2 -9 3 -24 12 -32 8 -8 11 -15 7 -15 -4 0 2 -10 13
-22 11 -13 23 -30 26 -38 4 -8 5 15 3 53 -1 37 -7 67 -12 67 -5 -1 -11 9 -14
22 -4 14 -9 18 -13 11z"/>
<path d="M1071 1424 c-12 -9 -19 -21 -15 -27 3 -7 -2 -3 -10 7 -9 11 -19 16
-23 13 -4 -4 -1 -13 5 -19 7 -7 12 -22 12 -34 0 -49 109 -96 137 -59 22 31 16
80 -12 99 -47 31 -71 36 -94 20z m68 -19 c31 -15 49 -61 32 -78 -11 -11 -43 0
-89 29 -19 12 -21 18 -12 29 10 12 17 12 48 0 19 -9 37 -13 40 -10 4 4 -25 18
-78 38 -10 3 -7 6 8 6 13 1 36 -6 51 -14z m17 -102 c-7 -7 -76 20 -89 35 -13
14 -5 13 37 -8 30 -14 53 -26 52 -27z"/>
<path d="M1970 1423 c-165 -30 -180 -34 -180 -50 0 -13 7 -14 38 -8 20 4 74
10 119 13 50 4 87 13 95 21 11 12 10 13 -7 6 -11 -5 -40 -10 -65 -13 -36 -3
-42 -1 -33 8 6 7 39 13 72 14 34 0 61 4 61 7 0 15 -29 15 -100 2z"/>
<path d="M944 1415 c-7 -18 12 -45 32 -45 15 0 28 35 19 50 -9 15 -45 12 -51
-5z"/>
<path d="M1382 1413 c-18 -7 -42 -58 -42 -89 0 -16 13 -39 35 -61 31 -31 40
-35 71 -30 63 10 98 61 70 101 -49 72 -91 97 -134 79z m89 -44 c18 -23 33 -52
33 -65 0 -24 -20 -54 -36 -54 -6 0 -2 8 9 18 10 9 14 14 8 11 -24 -14 -76 -28
-88 -23 -7 2 -21 18 -31 35 -20 34 -15 80 12 101 13 11 14 11 7 -1 -6 -11 -4
-13 9 -8 10 4 25 7 34 8 10 1 7 4 -8 9 -23 7 -23 8 -3 9 14 1 33 -13 54 -40z"/>
<path d="M1435 1380 c-4 -6 -11 -8 -16 -5 -5 4 -9 1 -9 -6 0 -6 8 -9 20 -6 27
7 25 -7 -4 -26 -17 -12 -26 -13 -35 -4 -8 8 -11 8 -11 0 0 -6 6 -14 13 -16 9
-4 9 -6 -1 -6 -7 -1 -17 9 -22 22 -8 20 -9 20 -9 2 0 -18 40 -75 54 -75 3 0 5
7 5 16 0 8 -4 13 -9 9 -5 -3 -12 -1 -15 4 -7 10 44 51 63 51 7 0 7 -7 -1 -25
-6 -13 -15 -22 -19 -19 -5 3 -9 0 -9 -5 0 -17 15 -13 45 13 28 24 28 24 6 35
-11 7 -21 18 -21 26 0 18 -17 28 -25 15z"/>
<path d="M354 1388 c-21 -10 -44 -47 -44 -72 0 -7 11 -23 25 -36 70 -65 176
14 117 86 -20 25 -68 36 -98 22z m26 -17 c0 -6 -5 -13 -10 -16 -6 -4 -8 -11
-4 -16 4 -6 11 -6 20 2 11 9 14 8 14 -5 0 -9 7 -16 15 -16 18 0 19 12 4 27 -7
7 -6 12 5 16 10 4 20 -1 26 -13 14 -27 13 -37 -10 -60 -23 -23 -67 -26 -92 -6
-21 15 -24 66 -6 84 14 14 38 16 38 3z"/>
<path d="M2712 1384 c-16 -11 -22 -12 -22 -3 0 10 -3 10 -12 1 -9 -9 -9 -15 0
-24 7 -7 12 -22 12 -33 0 -29 29 -53 76 -67 34 -9 40 -8 56 12 30 38 23 76
-19 105 -44 29 -60 31 -91 9z m84 -18 c10 -8 19 -18 20 -23 0 -4 4 -16 9 -26
10 -25 1 -30 -37 -23 -44 9 -80 37 -69 55 7 11 15 11 45 1 21 -7 40 -10 43 -7
3 3 -17 12 -43 21 -43 13 -45 15 -18 15 16 1 39 -5 50 -13z m-6 -90 c8 -3 -1
-4 -20 -1 -19 3 -44 15 -55 26 l-20 21 40 -20 c22 -10 47 -22 55 -26z"/>
<path d="M2593 1374 c-4 -11 1 -22 12 -31 16 -11 21 -11 33 1 8 8 12 22 9 30
-8 21 -46 21 -54 0z"/>
<path d="M200 1373 c-25 -9 -60 -46 -60 -62 0 -14 1 -14 10 -1 5 8 10 11 10 5
0 -5 -12 -19 -26 -32 -17 -14 -24 -28 -20 -39 8 -20 30 -13 35 12 6 37 33 56
76 52 35 -3 40 0 43 19 2 13 -5 27 -20 37 -24 17 -25 17 -48 9z"/>
<path d="M1575 1355 l-30 -14 31 -1 c17 0 37 7 44 15 16 19 -2 19 -45 0z"/>
<path d="M1997 1346 c-14 -13 -29 -37 -33 -52 -6 -22 -2 -32 20 -51 72 -61
173 10 120 85 -16 24 -44 30 -45 10 0 -7 -4 -3 -9 10 -12 28 -21 28 -53 -2z
m33 -14 c0 -4 -6 -14 -12 -21 -11 -11 -9 -13 9 -8 13 3 24 -1 27 -9 10 -25 27
-15 20 11 -7 30 11 34 26 6 27 -51 -36 -99 -89 -70 -29 16 -40 61 -20 85 12
15 39 19 39 6z"/>
<path d="M940 1332 c0 -7 11 -35 25 -62 17 -34 21 -50 12 -53 -18 -6 14 -49
49 -67 16 -8 45 -31 65 -52 40 -42 54 -46 63 -22 7 19 -17 50 -45 59 -21 7
-53 63 -64 112 -3 18 -11 36 -17 40 -8 4 -9 0 -3 -13 4 -10 9 -30 11 -44 3
-17 0 -14 -9 10 -9 23 -15 30 -19 20 -3 -8 2 -25 9 -37 8 -12 12 -26 9 -31 -3
-6 1 -16 10 -23 13 -11 14 -9 9 17 l-6 29 15 -25 c21 -34 20 -40 -5 -35 -32 6
-63 37 -47 46 9 6 9 11 0 22 -7 8 -9 23 -5 32 4 12 3 16 -5 11 -6 -3 -14 -1
-18 5 -4 8 -3 9 4 5 20 -12 13 7 -13 39 -13 17 -24 24 -25 17z m198 -240 c2
-7 -2 -12 -9 -12 -12 0 -38 29 -39 44 0 11 43 -18 48 -32z"/>
<path d="M1820 1314 c-17 -15 -30 -34 -28 -43 2 -9 -5 -23 -16 -32 -17 -14
-18 -19 -7 -33 15 -18 31 -12 31 11 0 9 10 27 21 39 16 17 29 22 50 17 45 -9
62 2 48 29 -24 46 -54 50 -99 12z"/>
<path d="M0 1306 c0 -21 24 -36 48 -29 16 4 22 1 22 -11 0 -21 19 -21 27 0 8
22 -15 40 -59 47 -28 4 -38 2 -38 -7z"/>
<path d="M560 1294 c-6 -14 -10 -29 -10 -34 0 -4 -6 -10 -14 -13 -19 -8 -76
-115 -76 -144 0 -13 -10 -37 -22 -53 -16 -22 -19 -33 -11 -41 16 -16 30 -4 38
31 4 17 15 35 26 40 27 15 79 109 79 145 0 17 7 39 15 49 19 26 19 46 0 46 -9
0 -20 -12 -25 -26z m-24 -127 c-27 -56 -52 -85 -63 -73 -7 7 7 42 44 104 17
31 28 41 35 34 8 -8 3 -28 -16 -65z"/>
<path d="M722 1294 c-28 -14 -57 -34 -62 -44 -24 -45 25 -110 82 -110 95 0
140 113 66 164 -27 19 -21 20 -86 -10z m87 -40 l4 -29 8 25 c6 19 7 14 5 -19
-6 -86 -104 -110 -152 -37 -22 35 -13 56 23 50 27 -4 27 -4 8 12 -16 14 -17
16 -2 11 9 -4 17 -2 17 2 0 5 7 12 16 15 9 4 13 2 8 -6 -4 -6 -8 -31 -9 -55
-1 -26 2 -38 7 -31 5 9 8 8 8 -6 0 -15 -5 -17 -27 -12 -27 5 -27 5 -5 -6 18
-9 29 -8 59 8 20 10 38 26 40 34 4 12 3 13 -5 1 -5 -7 -15 -10 -21 -7 -6 4
-11 2 -11 -3 0 -23 -19 -9 -29 21 -9 25 -8 35 4 48 8 9 12 20 8 24 -4 4 4 3
17 -2 17 -6 26 -18 29 -38z"/>
<path d="M670 1232 c0 -24 20 -51 34 -46 8 3 14 14 13 25 -2 27 -17 24 -18 -3
-1 -21 -2 -20 -14 7 -8 17 -14 24 -15 17z"/>
<path d="M2590 1293 c0 -10 11 -36 25 -58 26 -43 31 -60 15 -50 -25 15 -7 -20
25 -48 19 -18 55 -51 79 -74 50 -48 61 -51 71 -25 4 12 -3 25 -26 45 -18 15
-36 27 -40 27 -3 0 -14 21 -24 48 -49 136 -65 162 -65 106 0 -14 4 -23 9 -20
5 3 14 -9 21 -27 6 -17 18 -47 26 -66 8 -18 13 -35 11 -38 -2 -2 -10 10 -17
27 -7 16 -16 27 -21 25 -12 -8 -42 42 -33 56 5 8 3 9 -6 4 -9 -5 -11 -4 -6 4
4 6 -2 27 -14 46 -24 39 -30 43 -30 18z m185 -216 c10 -8 15 -19 11 -26 -9
-14 -22 -7 -36 20 -12 22 -2 25 25 6z"/>
<path d="M2222 1278 c-7 -7 -12 -18 -12 -24 0 -7 -11 -25 -23 -41 -40 -48 -77
-119 -77 -147 0 -15 -9 -39 -20 -53 -20 -26 -19 -43 5 -43 7 0 16 13 20 29 3
16 16 36 28 44 28 18 77 109 77 142 0 14 7 40 16 57 17 32 7 57 -14 36z m-17
-105 c-15 -60 -85 -151 -85 -110 0 12 29 72 56 115 20 31 38 28 29 -5z"/>
<path d="M1630 1265 c-6 -7 -10 -19 -9 -27 1 -7 -1 -21 -6 -31 -10 -23 12 -49
38 -45 29 4 34 28 7 28 -18 0 -20 3 -11 14 6 7 9 21 5 30 -3 9 -1 16 6 16 6 0
8 4 5 10 -3 6 1 7 10 3 13 -4 14 -8 4 -14 -8 -4 -11 -11 -7 -14 3 -4 17 1 30
9 24 16 38 13 38 -8 0 -6 -5 -4 -10 4 -8 12 -10 10 -10 -8 0 -15 5 -22 13 -20
15 6 20 29 8 47 -12 19 -97 23 -111 6z"/>
<path d="M2396 1265 c-11 -8 -27 -15 -36 -15 -19 0 -60 -40 -60 -59 0 -27 31
-69 59 -81 81 -33 167 52 127 128 -22 43 -55 53 -90 27z m34 -6 c-12 -9 -11
-10 7 -6 25 5 48 -15 40 -35 -4 -8 -6 -7 -6 4 -1 9 -5 19 -10 23 -10 5 1 -44
13 -64 11 -17 -5 -39 -39 -55 -54 -26 -64 -17 -12 10 26 13 47 30 46 37 0 9
-2 9 -5 0 -3 -7 -12 -9 -20 -6 -8 3 -14 0 -14 -6 0 -22 -16 -10 -28 21 -14 37
-2 57 20 34 23 -22 30 -7 8 16 -12 13 -23 17 -32 12 -7 -5 -29 -14 -48 -21
-31 -11 -33 -10 -16 3 11 7 27 14 35 14 9 0 25 7 35 15 11 8 25 15 30 15 6 0
4 -5 -4 -11z m-37 -80 c15 -39 15 -40 -6 -48 -22 -8 -50 0 -62 18 -3 5 0 22 7
38 9 22 12 24 15 11 6 -25 23 -23 18 2 -7 35 11 22 28 -21z"/>
<path d="M1213 1259 c-27 -10 -53 -47 -53 -77 0 -31 43 -72 75 -72 40 0 62 16
75 56 11 32 10 39 -7 62 -22 30 -59 43 -90 31z m26 -23 c9 -11 9 -15 0 -18 -9
-3 -9 -9 -2 -22 7 -13 13 -15 17 -7 4 6 2 11 -4 11 -6 0 -8 5 -5 10 5 8 12 7
23 -2 15 -12 16 -11 3 5 -7 9 -10 17 -5 17 5 0 2 5 -6 10 -8 5 -10 10 -5 10
12 0 44 -20 32 -20 -4 0 -3 -9 3 -20 8 -16 8 -20 -2 -18 -7 2 -12 -3 -10 -9 1
-7 -7 -13 -17 -13 -28 0 -37 -21 -16 -36 16 -12 16 -13 -3 -11 -12 0 -19 3
-17 5 2 3 0 13 -5 23 -7 12 -6 19 3 23 9 5 9 7 -1 12 -6 3 -10 10 -6 15 3 5 0
9 -5 9 -6 0 -11 -5 -11 -11 0 -5 -4 -7 -10 -4 -5 3 -10 1 -10 -5 0 -7 7 -10
15 -6 8 3 15 1 15 -4 0 -6 -6 -10 -12 -11 -10 0 -10 -2 0 -6 6 -2 12 -11 12
-20 0 -13 -2 -13 -15 0 -19 19 -31 67 -16 67 6 0 11 8 12 18 0 9 3 12 5 5 3
-7 12 -9 20 -6 13 5 13 7 2 14 -8 5 -9 9 -2 9 6 0 17 -6 23 -14z"/>
<path d="M175 1230 c-19 -37 -19 -50 1 -50 8 0 22 -7 31 -16 9 -8 22 -13 29
-10 8 3 14 1 14 -5 0 -13 68 -42 84 -36 12 5 50 106 43 113 -5 5 -147 34 -167
34 -11 0 -26 -12 -35 -30z m54 8 c-9 -6 -3 -7 19 -3 21 4 32 3 32 -5 0 -6 5
-8 10 -5 6 3 10 1 10 -4 0 -14 -17 -14 -25 -1 -3 6 -11 10 -16 10 -6 0 -4 -7
4 -15 9 -8 13 -25 11 -37 -5 -23 -4 -23 6 1 6 14 16 21 25 18 9 -4 12 -1 8 8
-7 20 26 32 38 14 5 -8 9 -18 9 -24 0 -5 -4 -3 -10 5 -6 10 -9 6 -8 -16 1 -39
-8 -54 -32 -54 -25 0 -15 28 14 40 19 8 19 9 -6 9 -18 1 -29 -5 -33 -19 l-6
-20 -26 20 c-14 11 -30 17 -35 14 -6 -4 -8 1 -4 13 4 14 2 20 -9 20 -8 0 -15
-4 -15 -9 0 -4 -4 -8 -9 -8 -6 0 -6 11 0 29 8 21 16 29 36 29 18 0 22 -3 12
-10z"/>
<path d="M1093 1244 c-3 -8 -1 -20 6 -27 14 -14 47 15 37 32 -10 16 -36 13
-43 -5z"/>
<path d="M910 1231 c0 -5 -14 -24 -31 -42 -19 -20 -26 -35 -19 -37 7 -3 3 -10
-9 -19 -20 -13 -28 -52 -15 -66 4 -3 15 -2 25 4 16 8 19 6 19 -10 0 -23 23
-34 39 -18 6 6 11 21 11 33 0 16 7 24 23 26 16 2 22 10 22 28 0 37 -42 41 -70
6 l-20 -26 3 40 c3 32 7 38 17 30 10 -8 14 -3 17 25 2 19 0 35 -4 35 -4 0 -8
-4 -8 -9z m50 -91 c12 -8 13 -11 1 -19 -15 -10 -51 -3 -51 9 0 7 16 17 30 19
3 0 12 -4 20 -9z m-90 -29 c0 -20 -17 -37 -27 -28 -7 8 7 47 18 47 5 0 9 -9 9
-19z m43 -48 c-3 -7 -9 -13 -14 -13 -11 0 -12 44 -2 54 9 9 22 -25 16 -41z"/>
<path d="M2831 1226 c-7 -8 -13 -34 -14 -58 -2 -40 0 -43 26 -46 19 -2 27 1
27 12 0 9 -7 16 -16 16 -13 0 -14 3 -6 13 9 10 7 20 -6 38 l-16 24 27 -18 c21
-13 32 -15 41 -8 16 13 27 4 19 -15 -3 -8 1 -14 10 -14 20 0 28 25 14 43 -17
21 -92 30 -106 13z"/>
<path d="M1827 1195 c-22 -46 -21 -55 2 -55 11 0 23 -4 26 -10 3 -5 15 -10 26
-10 10 0 19 -4 19 -8 0 -9 79 -47 84 -41 11 13 30 59 36 86 8 35 9 35 -65 49
-22 4 -44 9 -50 10 -54 18 -60 16 -78 -21z m111 3 c6 -1 12 -6 12 -11 0 -5 -8
-7 -19 -4 -14 3 -17 0 -14 -14 5 -19 19 -25 25 -11 2 4 14 2 28 -6 23 -13 23
-13 3 -9 -13 3 -26 1 -29 -4 -3 -5 -9 -7 -14 -4 -4 3 -6 -5 -2 -17 5 -21 5
-21 -21 -2 -29 21 -36 37 -12 28 17 -7 21 11 4 21 -6 4 -8 14 -5 22 4 8 1 11
-5 8 -6 -4 -8 -12 -6 -19 3 -6 -2 -21 -10 -31 -15 -19 -15 -19 -8 2 3 13 1 31
-5 40 -10 16 -11 15 -7 -5 3 -12 1 -20 -3 -17 -5 3 -10 -1 -13 -7 -2 -7 -7
-10 -11 -7 -4 4 -2 18 5 32 10 23 16 25 53 21 22 -3 47 -6 54 -6z"/>
<path d="M2747 1223 c-15 -14 -7 -43 12 -43 26 0 36 17 21 35 -14 16 -23 19
-33 8z"/>
<path d="M1467 1203 c-14 -13 -7 -23 16 -23 33 0 47 -19 47 -62 0 -43 16 -50
46 -17 17 18 17 23 4 46 -8 14 -22 29 -30 33 -8 4 -25 12 -37 18 -26 14 -37
15 -46 5z"/>
<path d="M2550 1177 c-12 -19 -27 -38 -35 -41 -8 -3 -15 -10 -15 -17 0 -6 7
-8 16 -5 9 4 2 -7 -15 -23 -20 -19 -29 -35 -25 -45 7 -19 30 -21 40 -4 6 9 10
5 14 -12 8 -36 44 -34 48 2 2 19 10 28 25 30 16 2 22 10 22 28 0 35 -46 41
-69 9 -9 -13 -12 -25 -8 -29 14 -9 20 -36 12 -51 -16 -25 -23 7 -21 95 1 32 3
36 15 27 11 -9 15 -5 18 26 7 50 3 52 -22 10z m66 -78 c9 -15 -13 -28 -37 -22
-22 6 -25 19 -6 26 21 9 36 7 43 -4z m-96 -28 c0 -20 -17 -37 -27 -28 -7 8 7
47 18 47 5 0 9 -9 9 -19z"/>
<path d="M1381 1187 c-6 -6 -11 -20 -11 -30 0 -12 -5 -17 -14 -14 -21 8 -50
-17 -43 -37 9 -22 63 -21 76 2 9 15 10 15 11 0 0 -28 -11 -47 -26 -41 -8 3
-14 -1 -14 -10 0 -9 -3 -23 -7 -33 -4 -11 11 -3 39 20 39 32 45 42 36 56 -12
19 -5 50 12 50 14 0 13 -23 -2 -38 -8 -8 -8 -12 -1 -12 12 0 23 23 23 47 0 10
-6 14 -20 10 -15 -4 -20 0 -20 13 0 22 -24 32 -39 17z m27 -29 c-4 -29 -25
-35 -22 -6 3 29 2 28 15 28 6 0 9 -10 7 -22z m-44 -34 c20 -8 11 -24 -15 -24
-10 0 -19 7 -19 15 0 16 9 19 34 9z"/>
<path d="M11 1156 c-15 -18 -3 -46 20 -46 25 0 35 26 19 45 -15 19 -24 19 -39
1z"/>
<path d="M396 1138 c-21 -28 -23 -34 -10 -36 19 -5 39 14 49 46 9 32 -9 27
-39 -10z"/>
<path d="M82 1148 c-16 -16 -15 -23 4 -42 21 -22 56 -3 52 27 -3 25 -37 34
-56 15z"/>
<path d="M595 1123 c8 -20 13 -38 10 -41 -2 -3 -8 6 -13 18 -5 13 -11 19 -15
14 -3 -6 10 -30 29 -53 19 -24 34 -50 34 -57 0 -17 12 -18 28 -2 15 15 16 82
1 110 -9 16 -64 48 -84 48 -3 0 2 -16 10 -37z m40 -13 c4 -6 11 -8 16 -5 5 4
7 -8 4 -27 -4 -26 -3 -29 4 -13 9 19 10 18 10 -5 0 -14 -4 -32 -9 -40 -7 -12
-11 -8 -16 18 -4 18 -11 35 -17 39 -6 4 -7 1 -2 -8 5 -8 4 -11 0 -7 -12 11
-16 58 -5 58 5 0 12 -5 15 -10z"/>
<path d="M1706 1123 c-4 -9 0 -23 9 -32 13 -14 17 -14 31 1 9 9 14 24 11 32
-8 21 -43 20 -51 -1z"/>
<path d="M2070 1127 c-8 -7 -23 -25 -33 -40 l-19 -29 24 7 c30 9 34 14 42 48
7 31 7 31 -14 14z"/>
<path d="M2917 1119 c-8 -11 -13 -28 -10 -39 3 -10 0 -21 -7 -25 -8 -5 -8 -10
1 -21 13 -16 39 -19 39 -4 0 6 8 10 19 10 20 0 48 27 37 37 -3 3 -6 1 -6 -7 0
-10 -3 -10 -15 0 -13 11 -18 10 -30 -6 -8 -10 -15 -22 -15 -26 0 -5 -4 -8 -10
-8 -16 0 -12 21 8 43 12 15 14 21 5 24 -7 3 -13 9 -13 14 0 15 42 10 62 -8 10
-9 18 -11 18 -5 0 13 -39 42 -57 42 -6 0 -18 -9 -26 -21z"/>
<path d="M2233 1093 c-1 -26 6 -46 24 -67 14 -16 29 -41 35 -55 9 -25 10 -25
24 -7 32 45 10 127 -40 147 -17 7 -33 14 -37 16 -3 2 -6 -13 -6 -34z m56 -15
c11 -11 12 -10 6 1 -5 9 -4 12 3 7 16 -10 26 -74 15 -98 -9 -20 -11 -17 -25
23 -8 24 -19 52 -23 62 -8 20 5 23 24 5z"/>
<path d="M166 1078 c-30 -42 -15 -69 42 -74 47 -4 58 6 41 38 -7 13 -15 30
-19 38 -11 24 -46 24 -64 -2z m43 -4 c-10 -13 -10 -17 2 -25 8 -5 17 -9 22 -9
4 0 7 -7 7 -17 0 -14 -2 -14 -20 2 -16 15 -22 15 -35 5 -13 -11 -15 -9 -15 12
0 27 17 48 38 48 12 0 12 -3 1 -16z"/>
<path d="M0 1075 c0 -4 11 -16 25 -27 14 -11 25 -24 25 -30 0 -7 -12 -1 -26
13 -16 15 -24 19 -22 9 4 -18 38 -39 53 -34 16 7 49 -32 35 -41 -14 -9 -68 3
-77 17 -4 8 0 9 11 5 10 -4 30 -10 44 -13 26 -5 26 -5 8 10 -10 8 -23 13 -27
10 -5 -3 -18 0 -29 6 -17 9 -20 8 -20 -10 0 -24 35 -40 88 -40 21 0 48 -7 60
-16 27 -19 66 -15 70 7 3 19 -45 42 -77 37 -13 -2 -41 15 -81 50 -33 29 -60
50 -60 47z m195 -124 c10 -18 -15 -22 -37 -7 l-22 16 26 0 c15 0 29 -4 33 -9z"/>
<path d="M1001 1070 c-58 -7 -73 -29 -45 -67 27 -36 68 -42 84 -13 6 11 8 25
5 31 -4 5 -1 17 6 25 18 22 0 30 -50 24z m3 -19 c13 -6 26 -7 29 -3 2 4 2 0
-1 -8 -2 -8 -5 -24 -7 -35 -1 -11 -5 -19 -8 -17 -4 1 -15 2 -24 2 -14 0 -12 5
8 27 17 20 18 23 3 10 -35 -30 -49 -18 -35 31 2 4 9 2 35 -7z"/>
<path d="M1596 1058 c-3 -13 -6 -38 -6 -56 0 -18 -4 -31 -9 -28 -18 12 -18
-34 0 -75 11 -23 17 -51 13 -61 -6 -21 11 -48 32 -48 17 0 18 30 2 65 -9 21
-8 39 6 95 21 80 17 110 -8 62 -11 -21 -15 -45 -12 -65 3 -18 3 -26 0 -19 -8
17 -22 15 -27 -5 -4 -14 -5 -12 -6 5 0 12 3 22 7 22 4 0 9 8 10 18 4 34 8 52
15 58 10 10 9 54 -2 54 -5 0 -11 -10 -15 -22z"/>
<path d="M1205 1060 c-16 -6 -85 -75 -85 -85 0 -3 80 12 84 16 6 7 36 68 36
74 0 7 -11 6 -35 -5z"/>
<path d="M1691 1056 c-23 -28 17 -68 45 -45 19 15 18 45 -2 53 -23 9 -30 8
-43 -8z"/>
<path d="M295 1048 c-13 -45 -14 -86 -2 -97 11 -9 17 -8 27 4 7 8 21 15 31 15
11 0 24 11 31 25 9 21 8 28 -7 45 -20 22 -73 27 -80 8z m63 -10 c7 -7 12 -21
12 -31 0 -16 -3 -17 -14 -8 -11 9 -18 6 -34 -16 -11 -15 -24 -25 -28 -21 -4 5
0 16 9 26 19 21 22 42 6 42 -5 0 -7 5 -4 10 8 14 38 13 53 -2z"/>
<path d="M514 1043 c-3 -10 -10 -27 -16 -39 -13 -29 -6 -75 14 -88 13 -8 22
-6 38 9 16 14 20 29 19 69 -1 28 -7 54 -13 58 -19 13 -36 9 -42 -9z m21 -53
c-19 -8 -19 -9 2 -9 19 -1 21 -5 14 -23 -12 -33 -37 -34 -45 -2 -7 28 5 44 34
43 10 0 8 -3 -5 -9z"/>
<path d="M740 1045 c-10 -13 -15 -13 -21 -3 -4 7 -11 9 -15 5 -4 -4 -2 -13 4
-19 7 -7 12 -22 12 -35 0 -48 108 -85 130 -44 20 38 12 68 -24 90 -40 25 -69
27 -86 6z m70 -10 c43 -22 37 -26 -15 -8 -25 8 -45 17 -45 19 0 9 33 3 60 -11z
m-5 -25 c50 -22 56 -46 10 -43 -37 3 -76 29 -69 48 7 19 3 19 59 -5z m20 -68
c-7 -7 -74 19 -85 33 -8 10 5 7 38 -8 27 -12 48 -24 47 -25z"/>
<path d="M1816 1041 c-19 -21 -15 -51 9 -71 11 -9 19 -9 28 -1 10 7 17 7 24 0
6 -6 16 -8 22 -5 13 9 15 36 2 36 -5 0 -11 12 -13 28 -4 35 -45 43 -72 13z
m45 -5 c-10 -12 -7 -18 13 -31 14 -10 23 -21 20 -27 -3 -5 -14 -2 -25 8 -15
14 -21 14 -34 4 -13 -11 -15 -9 -15 12 0 27 17 48 38 48 11 0 12 -3 3 -14z"/>
<path d="M1436 1024 c-21 -20 -20 -26 7 -68 23 -37 57 -48 57 -19 0 9 7 24 15
33 25 27 4 70 -34 70 -16 0 -37 -7 -45 -16z m70 -5 c4 -7 -1 -16 -10 -21 -13
-7 -16 -17 -11 -39 4 -18 3 -29 -4 -29 -6 0 -11 12 -11 26 0 17 -6 28 -20 31
-25 7 -26 19 -2 32 23 14 49 14 58 0z"/>
<path d="M2653 1033 c-54 -5 -69 -23 -51 -59 14 -30 63 -53 79 -37 5 5 11 23
13 39 3 16 7 37 11 47 4 9 3 16 -1 15 -5 -1 -28 -3 -51 -5z m29 -23 c-4 -3 -7
-18 -7 -35 -1 -16 -4 -29 -8 -27 -4 1 -15 2 -24 2 -14 0 -12 5 8 26 l24 27
-28 -18 c-31 -20 -47 -14 -27 10 11 13 10 14 -5 9 -11 -4 -16 -3 -12 2 3 5 23
9 46 9 22 0 37 -2 33 -5z"/>
<path d="M1957 1019 c-10 -6 -17 -20 -16 -32 1 -12 -1 -30 -5 -39 -4 -9 -5
-22 -1 -28 8 -13 35 -13 35 0 0 6 11 10 25 10 50 0 57 67 9 88 -29 14 -25 14
-47 1z m57 -24 c8 -9 12 -23 9 -31 -5 -13 -7 -13 -15 -2 -6 10 -14 7 -32 -16
-13 -16 -26 -24 -30 -18 -3 6 1 17 9 25 17 18 20 37 4 37 -5 0 -7 5 -4 10 9
15 42 12 59 -5z"/>
<path d="M2400 1015 c-7 -8 -21 -13 -30 -10 -16 5 -17 2 -5 -30 16 -48 42 -72
87 -80 31 -6 38 -4 48 15 17 31 8 71 -20 91 -38 27 -65 32 -80 14z m68 -22
c28 -25 38 -61 18 -69 -9 -3 -14 -9 -11 -14 2 -4 -8 -5 -23 -2 -30 6 -75 32
-68 39 3 3 15 -2 28 -11 12 -9 29 -16 38 -16 8 1 -1 10 -21 20 -47 25 -58 49
-21 45 15 -2 38 -6 52 -11 38 -11 19 4 -26 20 -34 13 -36 15 -13 15 15 1 36
-7 47 -16z"/>
<path d="M2833 1009 c-18 -12 -33 -27 -33 -34 0 -8 -8 -19 -17 -24 -16 -9 -14
-10 7 -8 18 1 24 -2 21 -13 -2 -8 -6 -30 -9 -48 -3 -27 -7 -30 -18 -21 -9 8
-36 10 -74 6 -120 -11 -200 -97 -200 -214 0 -130 122 -237 248 -218 62 9 90
25 139 78 45 49 56 84 51 162 -4 59 -19 67 -79 39 -71 -32 -53 -6 21 30 83 41
100 53 100 73 0 25 -84 98 -134 117 -31 12 -44 21 -36 26 7 4 10 13 6 19 -5 7
-1 8 10 4 14 -5 16 -3 11 11 -4 10 -3 15 3 11 13 -8 13 -35 0 -35 -5 0 -10 -5
-10 -11 0 -17 18 -1 34 33 9 17 16 33 16 35 0 9 -29 0 -57 -18z m46 -98 c41
-21 106 -89 96 -99 -4 -4 -14 3 -23 14 -13 16 -26 20 -57 17 -22 -2 -50 -4
-62 -5 -13 0 -20 -5 -17 -13 3 -7 0 -16 -6 -20 -9 -6 -10 4 -5 36 4 24 9 47
12 52 7 12 34 8 61 -11 46 -32 58 -35 28 -7 -15 14 -41 29 -57 32 -16 3 -26 9
-23 14 7 12 9 12 53 -10z m-109 -60 c0 -5 -29 -11 -65 -13 -37 -2 -70 -10 -77
-17 -11 -12 -9 -13 7 -7 11 5 46 10 77 13 l56 6 -19 -74 c-22 -83 -24 -109 -8
-109 6 0 42 14 81 31 81 35 88 32 88 -39 0 -53 -18 -89 -65 -131 -42 -36 -51
-38 -58 -11 -6 24 -52 28 -61 5 -6 -16 28 -45 54 -46 29 -1 -24 -18 -55 -17
-29 1 -29 1 5 8 32 7 33 7 7 9 -45 2 -99 29 -144 74 -24 22 -43 37 -43 31 0
-17 67 -76 107 -95 21 -9 31 -18 22 -18 -21 -1 -104 54 -122 82 -10 16 -14 46
-12 104 2 66 7 86 25 111 26 36 50 48 50 27 0 -8 7 -15 15 -15 8 0 15 7 15 15
0 8 -7 15 -15 15 -8 0 -15 5 -15 12 0 14 -57 -38 -72 -65 -5 -10 -13 -46 -17
-80 l-8 -62 -2 50 c-2 122 85 210 212 214 20 0 37 -3 37 -8z m36 -58 c9 -3 29
5 46 17 24 18 30 19 25 7 -8 -20 1 -47 15 -47 5 0 9 10 8 23 -3 37 0 48 11 41
6 -3 8 -17 4 -33 -4 -17 -3 -23 3 -16 6 6 12 19 14 30 4 19 4 19 16 -2 11 -20
7 -24 -74 -64 -85 -43 -119 -68 -73 -54 37 11 10 -10 -29 -23 l-33 -11 6 32
c16 81 40 151 43 129 2 -13 10 -26 18 -29z m129 -166 c-7 -58 -11 -66 -60
-114 -28 -29 -58 -53 -66 -52 -10 0 -9 4 4 12 28 18 49 38 80 75 24 30 27 42
27 105 1 56 3 68 11 54 7 -12 8 -42 4 -80z"/>
<path d="M2715 807 c13 -10 15 -16 6 -21 -17 -11 -44 1 -35 16 5 10 4 10 -6 1
-17 -16 -4 -33 26 -33 28 0 44 28 23 41 -22 14 -35 10 -14 -4z"/>
<path d="M2635 736 c-27 -21 -28 -26 -17 -50 6 -14 16 -26 22 -26 13 0 13 17
0 25 -5 3 -10 11 -10 16 0 6 4 8 9 5 5 -3 12 1 15 10 4 9 13 14 22 10 8 -3 12
-2 9 4 -3 6 -1 10 5 10 7 0 10 -13 7 -35 -5 -39 9 -48 19 -11 7 30 -11 66 -34
66 -9 0 -30 -11 -47 -24z"/>
<path d="M2575 730 c-9 -14 4 -52 16 -45 12 8 12 42 0 50 -5 3 -12 1 -16 -5z"/>
<path d="M2664 686 c3 -18 -1 -27 -15 -31 -10 -4 -19 -15 -19 -27 0 -11 5 -18
13 -15 6 2 12 10 12 18 0 8 6 17 14 20 19 7 22 31 4 47 -11 11 -13 9 -9 -12z"/>
<path d="M2857 666 c-8 -20 20 -43 35 -28 14 14 3 42 -16 42 -7 0 -16 -6 -19
-14z"/>
<path d="M2557 653 c-15 -15 -5 -44 18 -55 19 -9 28 -9 37 0 9 9 6 18 -12 37
-25 26 -32 29 -43 18z"/>
<path d="M2680 630 c-24 -24 -25 -38 -5 -67 11 -15 12 -24 4 -29 -6 -3 -15 0
-20 7 -15 25 -24 -2 -9 -28 17 -30 47 -46 37 -19 -12 30 2 45 36 41 29 -4 30
-4 7 5 -24 9 -24 9 5 7 41 -2 51 6 50 45 0 30 -2 33 -28 30 -16 -2 -26 1 -23
6 3 6 -1 13 -10 16 -22 8 -22 8 -44 -14z m30 -10 c0 -3 -6 -12 -12 -20 -8 -9
-5 -8 7 1 35 28 64 -2 30 -31 -10 -9 -15 -9 -15 -1 0 6 -4 11 -10 11 -5 0 -7
-7 -3 -16 4 -11 2 -15 -7 -12 -19 6 -21 75 -3 75 7 0 13 -3 13 -7z m65 -42
c-1 -13 -5 -22 -8 -20 -4 1 -11 2 -16 2 -5 0 -4 11 2 24 14 29 24 26 22 -6z"/>
<path d="M2799 636 c13 -15 51 -28 51 -17 0 14 -24 31 -43 31 -16 0 -17 -3 -8
-14z"/>
<path d="M2864 609 c-10 -17 13 -36 27 -22 12 12 4 33 -11 33 -5 0 -12 -5 -16
-11z"/>
<path d="M2800 574 c-6 -14 -10 -32 -10 -40 0 -22 40 -13 57 12 12 19 12 24
-2 38 -23 22 -34 20 -45 -10z"/>
<path d="M2585 570 c-4 -7 -3 -16 3 -22 14 -14 45 -2 40 15 -6 16 -34 21 -43
7z"/>
<path d="M2771 756 c-14 -56 -14 -76 0 -76 5 0 8 4 4 9 -3 6 0 31 6 56 6 25 9
48 7 51 -3 3 -11 -15 -17 -40z"/>
<path d="M2807 773 c-15 -15 -6 -33 17 -33 24 0 43 25 27 35 -5 3 -11 -2 -15
-10 -3 -8 -10 -15 -17 -15 -6 0 -9 7 -5 15 6 16 3 19 -7 8z"/>
<path d="M2155 984 c-19 -47 -19 -78 1 -98 20 -21 27 -20 48 3 12 14 16 32 14
72 -3 47 -7 54 -25 57 -17 3 -26 -5 -38 -34z m40 -24 c3 -5 0 -10 -7 -11 -8 0
-7 -3 3 -7 12 -5 14 -13 8 -29 -11 -30 -27 -29 -40 1 -9 19 -8 28 2 40 16 18
26 20 34 6z"/>
<path d="M1260 965 c-18 -21 -4 -47 22 -43 29 4 35 34 10 47 -15 8 -23 7 -32
-4z"/>
<path d="M404 955 c-4 -9 -2 -21 4 -27 15 -15 44 -1 40 19 -4 23 -36 29 -44 8z"/>
<path d="M612 958 c-18 -18 -14 -28 11 -28 41 0 62 -24 62 -72 0 -33 4 -43 18
-46 50 -10 66 72 21 107 -15 12 -34 21 -43 21 -9 0 -26 7 -37 15 -16 10 -24
11 -32 3z m83 -38 c-3 -5 3 -10 14 -10 12 0 21 -4 21 -10 0 -5 -9 -10 -20 -10
-11 0 -20 2 -20 4 0 2 -3 11 -6 20 -3 9 -1 16 6 16 6 0 8 -4 5 -10z"/>
<path d="M1331 956 c-15 -17 1 -56 23 -56 23 0 41 30 29 48 -14 23 -37 26 -52
8z"/>
<path d="M967 944 c-4 -4 -7 -16 -7 -26 0 -14 6 -19 23 -16 14 2 22 10 22 23
0 20 -25 32 -38 19z"/>
<path d="M1693 943 c-34 -7 -44 -26 -35 -69 6 -32 12 -39 32 -39 13 0 25 6 28
13 2 7 -5 12 -20 12 -19 0 -20 -2 -8 -11 12 -8 12 -10 1 -7 -8 2 -16 15 -18
29 -2 19 -1 21 7 9 5 -8 10 -11 10 -6 0 5 -8 18 -17 29 -17 19 -17 20 4 8 29
-15 36 -14 30 3 -4 9 0 13 11 12 9 -2 18 -8 20 -14 7 -21 23 -13 20 11 -3 23
-22 29 -65 20z"/>
<path d="M1140 914 c-6 -14 -10 -37 -9 -52 1 -26 1 -26 10 6 5 17 16 32 25 32
22 0 91 -48 110 -78 16 -24 16 -26 -2 -39 -24 -18 -31 -17 -44 7 -11 21 -6 40
12 40 6 0 8 -11 3 -27 -5 -21 -4 -25 5 -17 6 7 10 22 8 35 -2 20 -8 24 -33 22
-72 -5 -73 -6 -84 -50 -15 -57 -15 -56 19 -51 34 5 31 1 -24 -32 -35 -21 -38
-22 -33 -4 16 51 29 115 25 119 -2 3 -12 -27 -22 -66 -10 -38 -17 -72 -14 -74
3 -3 55 21 116 52 83 42 112 62 112 76 0 38 -108 127 -155 127 -8 0 -20 -12
-25 -26z m70 -4 c44 -22 100 -78 100 -99 0 -8 -18 7 -40 32 -23 25 -56 52 -75
59 -19 6 -35 16 -35 20 0 12 7 10 50 -12z m13 -140 c7 0 4 -5 -6 -11 -14 -8
-22 -7 -33 8 -9 10 -13 12 -9 6 3 -7 4 -13 1 -13 -2 0 -11 -3 -20 -6 -27 -10
-18 13 17 45 l32 31 3 -30 c2 -17 9 -30 15 -30z"/>
<path d="M2322 924 c-14 -10 -22 -25 -22 -45 0 -29 0 -29 29 -14 30 15 47 47
36 65 -8 14 -17 13 -43 -6z"/>
<path d="M2054 915 c-4 -9 -2 -21 4 -27 15 -15 44 -1 40 19 -4 23 -36 29 -44
8z"/>
<path d="M855 895 c-8 -14 -22 -36 -30 -50 -9 -14 -12 -25 -7 -25 9 0 51 28
70 47 7 7 19 13 25 13 7 0 6 4 -3 10 -13 8 -12 10 3 10 9 0 17 5 17 10 0 6
-13 10 -30 10 -21 0 -34 -7 -45 -25z"/>
<path d="M1420 896 c0 -25 36 -60 52 -50 14 9 9 33 -12 54 -27 27 -40 25 -40
-4z"/>
<path d="M3 879 c4 -13 7 -31 7 -39 0 -11 3 -11 17 3 13 13 15 21 7 34 -18 28
-38 29 -31 2z"/>
<path d="M217 879 c-63 -10 -130 -50 -157 -94 -31 -50 -38 -142 -16 -200 31
-79 128 -146 212 -145 70 2 169 64 198 125 9 18 17 62 18 97 2 65 -14 106 -61
162 -39 45 -118 67 -194 55z m133 -31 c29 -15 56 -40 78 -72 27 -41 32 -57 32
-107 0 -69 -16 -114 -54 -148 -34 -32 -33 -19 3 27 72 92 32 235 -81 293 -35
18 -47 19 -106 10 -55 -9 -71 -16 -103 -47 -53 -52 -65 -85 -50 -136 10 -31
15 -38 22 -27 6 10 9 10 9 2 0 -7 5 -13 11 -13 5 0 7 4 4 10 -3 6 1 7 9 4 12
-4 16 0 16 16 0 11 -4 18 -10 15 -6 -3 -7 1 -4 9 7 19 -26 22 -44 4 -19 -19
-15 32 6 63 38 58 77 80 149 85 58 4 74 2 108 -18 54 -31 85 -93 85 -169 0
-49 -5 -62 -35 -102 -20 -26 -37 -50 -38 -54 -1 -4 -8 -6 -16 -5 -7 2 -11 0
-8 -5 9 -14 -131 -9 -144 5 -11 10 -7 12 15 12 15 0 25 4 22 9 -4 5 -1 11 5
13 22 7 -1 48 -26 48 -30 0 -52 -35 -35 -55 8 -10 8 -14 -2 -18 -17 -6 53 -37
89 -38 23 -1 24 -3 6 -6 -55 -11 -163 51 -195 110 -6 12 8 3 32 -20 23 -24 47
-43 53 -43 5 0 -11 19 -36 43 -37 34 -48 52 -53 87 -7 41 -9 43 -16 20 -5 -15
-6 -2 -2 35 7 81 39 129 107 161 68 31 137 32 197 2z"/>
<path d="M200 816 c-31 -38 9 -89 54 -68 45 20 30 82 -20 82 -12 0 -27 -7 -34
-14z m34 -8 c-5 -9 -2 -9 9 1 11 9 17 10 17 2 0 -18 -4 -26 -12 -23 -13 4 -9
-16 5 -21 6 -3 -3 -6 -20 -6 -18 -1 -33 4 -33 9 0 6 3 9 8 8 4 -2 8 2 9 7 0 6
-4 9 -10 7 -6 -2 -5 4 3 12 15 19 34 21 24 4z"/>
<path d="M307 793 c-11 -10 -8 -55 3 -48 6 3 10 1 10 -4 0 -6 5 -11 11 -11 5
0 7 4 4 10 -3 5 0 7 8 4 21 -8 28 32 9 48 -13 11 -15 10 -10 -10 4 -12 2 -20
-3 -16 -5 3 -9 12 -9 20 0 15 -12 19 -23 7z"/>
<path d="M155 780 c-3 -5 -11 -7 -18 -4 -8 2 -12 -7 -13 -26 -1 -19 3 -29 10
-27 6 3 10 10 8 16 -1 7 2 10 7 6 9 -5 31 23 31 39 0 10 -18 7 -25 -4z"/>
<path d="M281 743 c0 -7 -11 -13 -22 -13 -18 0 -19 -2 -9 -15 14 -17 75 -21
65 -5 -4 6 -10 8 -15 5 -5 -3 -11 5 -13 17 -2 13 -5 17 -6 11z"/>
<path d="M168 728 c-29 -22 -27 -62 3 -78 16 -9 26 -8 45 5 30 19 31 49 2 69
-27 19 -30 19 -50 4z m28 -24 c-3 -7 -1 -16 5 -19 5 -4 8 -3 7 2 -2 4 0 9 5
11 10 3 7 -10 -8 -31 -11 -16 -17 -17 -32 -7 -16 10 -16 11 0 6 21 -7 22 7 1
28 -14 15 -14 16 1 16 10 0 13 5 9 12 -5 7 -3 8 5 4 7 -5 10 -14 7 -22z"/>
<path d="M342 718 c-24 -24 -8 -78 22 -78 6 0 4 5 -4 10 -12 8 -10 10 8 10 13
0 20 -4 17 -10 -9 -14 8 -13 23 2 17 17 15 44 -4 62 -18 19 -45 21 -62 4z m38
-8 c0 -5 4 -9 9 -7 9 2 11 -2 11 -28 0 -13 -4 -14 -20 -5 -11 6 -24 9 -29 6
-4 -3 -8 1 -8 9 0 8 4 15 9 15 5 0 6 5 3 10 -3 6 1 10 9 10 9 0 16 -4 16 -10z"/>
<path d="M262 668 c-7 -7 -12 -20 -12 -29 0 -15 -7 -17 -47 -12 l-48 5 22 -21
c19 -18 26 -20 45 -10 12 7 38 12 58 13 30 1 35 4 36 26 2 36 -29 53 -54 28z"/>
<path d="M109 618 c-8 -28 -6 -48 7 -59 12 -10 19 -9 36 9 18 17 19 23 8 36
-10 13 -48 23 -51 14z"/>
<path d="M342 608 c-17 -17 4 -49 31 -44 31 4 33 56 2 56 -12 0 -26 -5 -33
-12z"/>
<path d="M260 560 c-14 -27 -4 -57 21 -65 49 -16 86 30 53 66 -23 25 -60 24
-74 -1z m52 1 c-11 -7 -11 -9 2 -14 18 -7 21 -32 6 -42 -6 -3 -7 1 -4 10 5 13
1 15 -19 11 -20 -3 -25 -1 -20 11 5 12 3 14 -7 8 -9 -5 -11 -4 -6 4 4 6 11 9
16 6 5 -3 11 -1 15 5 3 5 12 10 18 10 8 0 8 -3 -1 -9z"/>
<path d="M2509 858 c-24 -25 -44 -68 -32 -68 4 0 45 20 51 25 2 2 -1 12 -7 22
-8 15 -7 20 5 20 8 0 13 -6 10 -14 -6 -15 3 -17 24 -3 13 9 13 10 0 10 -12 1
-11 3 3 11 24 14 21 28 -5 26 -13 -1 -35 -14 -49 -29z"/>
<path d="M503 872 c-10 -7 -10 -11 0 -24 16 -21 49 -30 67 -18 13 9 12 13 -9
30 -25 22 -39 24 -58 12z"/>
<path d="M1846 865 c-94 -36 -158 -119 -158 -206 0 -117 87 -214 203 -225 58
-6 134 13 134 33 0 6 4 15 9 20 5 5 6 3 2 -4 -4 -7 -3 -13 2 -13 17 0 51 46
78 103 31 69 29 100 -13 184 -48 97 -161 144 -257 108z m182 -40 c46 -30 60
-51 86 -127 14 -42 14 -52 0 -97 -14 -48 -61 -118 -72 -107 -2 3 -17 -1 -33
-9 -35 -18 -122 -19 -169 -1 -80 30 -78 30 -55 12 27 -23 88 -38 154 -38 54
-1 55 -2 21 -11 -47 -12 -135 8 -179 40 -41 31 -81 114 -81 168 0 22 9 58 19
80 54 117 204 161 309 90z"/>
<path d="M1801 803 c-46 -32 -58 -47 -74 -93 -11 -32 -16 -67 -13 -83 9 -43
45 -121 53 -113 4 3 1 12 -5 18 -17 17 -15 31 4 24 21 -8 44 11 44 35 0 16 5
18 24 13 21 -5 24 -3 19 15 -3 12 -10 21 -15 21 -6 0 -7 -8 -3 -17 5 -14 4
-15 -6 -6 -7 7 -14 20 -15 28 -2 12 3 14 19 9 22 -6 22 -6 2 9 -19 15 -19 16
8 13 15 -1 30 -6 35 -11 4 -4 2 -5 -4 -2 -8 5 -11 -4 -10 -23 1 -39 20 -33 24
8 3 27 -1 32 -24 38 -37 9 -59 -7 -58 -43 1 -26 -1 -29 -22 -25 -16 3 -26 -1
-30 -12 -12 -32 -24 -15 -24 34 0 54 13 93 44 128 26 29 33 28 28 -6 -5 -36
18 -57 54 -48 18 5 24 12 20 22 -3 9 -1 12 4 9 15 -9 12 18 -3 40 -10 12 -22
16 -40 13 -35 -7 -34 -2 3 17 58 30 153 13 195 -35 l20 -23 -28 7 c-37 9 -57
-8 -57 -46 0 -20 6 -31 23 -37 34 -14 62 10 60 49 l-1 33 19 -29 c10 -16 22
-43 25 -60 6 -33 -17 -126 -38 -154 -7 -9 -3 -6 9 7 28 30 47 97 40 147 -6 42
-49 109 -91 141 -19 14 -47 20 -94 23 -64 3 -69 1 -121 -35z m57 -43 c-2 -32
-25 -47 -42 -30 -8 8 -6 9 6 5 13 -5 17 -2 15 14 -1 15 -4 17 -14 9 -9 -7 -13
-7 -13 1 0 9 25 25 48 30 1 1 1 -12 0 -29z m156 -25 c13 -13 15 -13 19 3 3 9
5 3 6 -14 1 -21 -5 -34 -15 -38 -15 -6 -15 -4 -3 10 11 14 10 16 -11 12 -20
-2 -25 2 -26 20 -1 26 8 28 30 7z"/>
<path d="M1905 791 c-8 -26 2 -44 21 -37 8 3 14 0 14 -6 0 -7 5 -6 15 2 25 21
15 54 -17 58 -19 2 -28 -2 -33 -17z"/>
<path d="M1887 719 c-14 -15 -15 -21 -4 -25 15 -5 67 12 67 22 0 3 -7 4 -15 0
-9 -3 -15 0 -15 9 0 20 -11 18 -33 -6z"/>
<path d="M1768 711 c-17 -20 -14 -31 8 -31 15 0 27 31 16 42 -4 4 -15 -1 -24
-11z"/>
<path d="M1920 665 c-17 -21 -4 -32 20 -17 11 7 25 12 32 11 7 0 3 -4 -10 -10
-13 -5 -21 -13 -17 -19 4 -6 -1 -7 -11 -3 -11 4 -15 2 -11 -4 4 -6 -6 -13 -24
-17 -17 -3 -28 -10 -24 -16 3 -6 0 -7 -9 -4 -9 3 -16 2 -16 -4 0 -15 48 -21
54 -6 3 7 0 15 -7 18 -7 3 -2 3 11 0 12 -3 22 -1 22 5 0 6 8 11 19 11 26 0 44
25 36 50 -8 24 -47 27 -65 5z"/>
<path d="M2024 658 c-5 -7 -2 -9 9 -5 11 4 14 2 11 -8 -3 -8 -13 -11 -22 -8
-13 4 -11 0 5 -17 22 -23 23 -23 42 -6 16 14 18 23 10 37 -11 21 -44 25 -55 7z"/>
<path d="M1976 584 c-9 -8 -16 -19 -16 -22 0 -18 33 -52 49 -52 19 0 51 30 51
48 0 17 -30 42 -50 42 -10 0 -26 -7 -34 -16z m44 -9 c4 3 13 -2 21 -11 10 -12
10 -18 -3 -30 -17 -17 -48 -9 -48 13 0 8 -5 11 -12 7 -7 -4 -4 2 7 13 11 11
22 16 23 11 2 -4 7 -6 12 -3z"/>
<path d="M1816 555 c-9 -9 -16 -19 -16 -23 1 -38 65 -43 65 -4 0 12 -4 22 -9
21 -5 0 -12 5 -16 11 -5 8 -12 7 -24 -5z"/>
<path d="M1890 530 c-9 -16 -8 -18 5 -14 8 3 12 11 8 18 -4 6 1 4 11 -3 17
-14 17 -15 -5 -23 -29 -11 -12 -31 22 -26 16 2 25 11 27 27 2 14 0 21 -7 17
-7 -4 -8 -1 -5 8 9 25 -43 21 -56 -4z"/>
<path d="M996 863 c-11 -3 -37 -16 -58 -29 -123 -78 -131 -254 -17 -346 99
-80 198 -77 289 8 60 56 72 85 68 165 -4 80 -10 82 -119 34 -45 -20 -83 -34
-85 -32 -3 2 7 46 20 98 14 51 22 97 20 101 -6 9 -86 9 -118 1z m104 -13 c0
-5 -20 -10 -44 -10 -25 0 -57 -5 -73 -11 -30 -11 -93 -67 -93 -82 0 -5 18 8
40 29 44 43 64 52 129 53 37 1 42 -1 36 -16 -9 -25 -35 -135 -35 -152 0 -17
35 -9 109 25 29 13 57 24 61 24 4 0 8 -30 9 -66 l2 -67 -55 -53 c-61 -59 -62
-72 -3 -23 53 44 70 82 69 157 0 36 3 60 9 57 5 -4 9 -31 9 -61 0 -68 -24
-117 -82 -164 -44 -36 -68 -40 -154 -27 -28 5 -33 4 -19 -3 11 -5 34 -10 50
-11 25 -1 26 -3 7 -6 -37 -7 -115 25 -155 63 -37 37 -41 43 -38 79 2 17 0 18
-9 5 -7 -11 -9 -8 -5 15 3 17 10 52 14 80 5 27 8 52 5 54 -5 5 -10 -13 -23
-79 l-10 -55 5 59 c2 33 14 75 25 95 20 36 84 84 124 94 37 9 95 7 95 -3z"/>
<path d="M1015 807 c-23 -17 -12 -37 21 -37 28 0 44 28 23 41 -19 12 -22 11
-44 -4z"/>
<path d="M980 743 c-14 -9 -28 -21 -32 -27 -8 -11 1 -37 16 -51 9 -8 9 -16 0
-33 l-12 -23 -20 25 c-23 30 -37 33 -46 10 -10 -26 -7 -34 18 -45 30 -14 88 8
84 31 -2 8 10 22 27 30 33 17 46 60 24 86 -15 18 -29 18 -59 -3z m53 -23 c3
-11 1 -20 -4 -20 -5 0 -8 -5 -6 -11 1 -6 -6 -16 -15 -22 -14 -9 -20 -8 -32 8
-17 22 -21 39 -7 31 5 -3 12 1 15 10 4 9 13 14 22 10 8 -3 12 -2 9 4 -3 6 -2
10 3 10 5 0 12 -9 15 -20z"/>
<path d="M911 731 c-8 -5 -11 -16 -6 -30 10 -31 25 -26 25 9 0 33 0 33 -19 21z"/>
<path d="M1187 666 c-8 -20 20 -43 35 -28 14 14 3 42 -16 42 -7 0 -16 -6 -19
-14z"/>
<path d="M1130 640 c0 -10 41 -31 48 -25 1 1 0 10 -4 19 -7 17 -44 23 -44 6z"/>
<path d="M1007 633 c-11 -10 -8 -71 3 -78 6 -4 8 -11 4 -16 -4 -6 -11 -6 -20
2 -23 19 -30 0 -12 -32 25 -42 4 -36 -52 17 -28 26 -50 44 -50 41 0 -14 65
-80 87 -88 28 -11 56 -1 49 17 -11 28 4 43 37 37 24 -4 37 0 51 16 11 12 15
21 10 21 -5 0 -3 4 5 9 10 7 11 13 2 30 -9 17 -18 20 -38 15 -18 -5 -24 -4
-19 5 8 12 -45 16 -57 4z m70 -44 c-3 -11 -1 -19 4 -19 5 0 9 9 9 20 0 11 5
20 10 20 12 0 9 -37 -3 -57 -11 -17 -49 -16 -73 1 -19 14 -19 15 5 39 26 28
56 25 48 -4z"/>
<path d="M1035 578 c-11 -12 -14 -18 -7 -14 6 4 12 2 12 -3 0 -13 47 -15 54
-2 3 4 -6 7 -20 5 -20 -2 -24 1 -19 17 8 24 5 23 -20 -3z"/>
<path d="M1194 609 c-10 -17 13 -36 27 -22 12 12 4 33 -11 33 -5 0 -12 -5 -16
-11z"/>
<path d="M1131 567 c-6 -16 -11 -34 -11 -38 0 -16 37 -9 54 10 19 21 13 47
-14 54 -14 4 -22 -3 -29 -26z"/>
<path d="M917 573 c-3 -5 -2 -15 3 -22 10 -17 43 -6 38 12 -6 15 -34 22 -41
10z"/>
<path d="M1064 505 c-8 -21 3 -32 41 -40 17 -4 26 -3 20 2 -5 4 -10 17 -10 28
0 26 -42 34 -51 10z"/>
<path d="M579 783 c-11 -3 -14 -12 -11 -34 4 -25 7 -28 20 -17 12 10 16 10 19
1 6 -18 43 -16 43 2 0 8 4 15 10 15 5 0 7 -7 4 -15 -4 -8 -2 -15 4 -15 5 0 12
9 15 20 4 17 0 20 -25 20 -16 0 -27 -4 -23 -9 3 -5 1 -12 -4 -15 -10 -7 -24
22 -16 34 6 10 -15 17 -36 13z"/>
<path d="M1422 781 c-9 -5 -11 -17 -7 -34 7 -25 8 -25 24 -10 15 15 16 15 19
0 5 -25 42 -22 42 3 0 11 -4 20 -10 20 -5 0 -10 -7 -10 -17 0 -21 -7 -14 -12
12 -5 31 -23 41 -46 26z"/>
<path d="M2249 783 c-11 -3 -14 -12 -11 -34 4 -25 7 -28 20 -17 12 10 16 10
19 1 6 -18 43 -16 43 2 0 8 4 15 10 15 5 0 7 -7 4 -15 -4 -8 -2 -15 4 -15 5 0
12 9 15 20 4 17 0 20 -25 20 -16 0 -27 -4 -23 -9 3 -5 1 -12 -5 -16 -8 -5 -15
14 -12 37 2 9 -20 15 -39 11z"/>
<path d="M697 753 c-4 -3 -7 -13 -7 -20 0 -19 42 -13 48 6 3 8 0 11 -7 7 -6
-4 -11 -2 -11 3 0 12 -13 14 -23 4z"/>
<path d="M1540 742 c0 -14 6 -19 18 -18 9 2 17 9 17 17 0 7 -8 15 -17 17 -12
2 -18 -3 -18 -16z"/>
<path d="M2367 753 c-4 -3 -7 -13 -7 -20 0 -19 42 -13 48 6 3 8 0 11 -7 7 -6
-4 -11 -2 -11 3 0 12 -13 14 -23 4z"/>
<path d="M2177 676 c16 -43 34 -56 73 -56 11 1 10 4 -4 15 -14 11 -16 15 -5
15 12 0 12 2 -1 10 -9 6 -17 5 -23 -3 -6 -8 -7 -4 -4 10 3 16 -2 27 -19 38
-34 22 -35 20 -17 -29z"/>
<path d="M2424 695 c-8 -21 2 -45 19 -45 21 0 38 25 31 44 -8 20 -43 21 -50 1z"/>
<path d="M1323 689 c-15 -15 -5 -39 17 -39 22 0 32 24 17 39 -6 6 -14 11 -17
11 -3 0 -11 -5 -17 -11z"/>
<path d="M710 662 c0 -37 17 -60 52 -67 18 -4 39 -12 47 -19 12 -9 12 -8 3 10
-18 34 -40 48 -55 35 -10 -8 -14 -7 -14 4 0 8 4 12 9 9 4 -3 8 2 8 11 0 9 -6
15 -12 12 -7 -2 -18 3 -25 12 -11 14 -12 13 -13 -7z"/>
<path d="M1463 659 c-13 -13 -6 -39 11 -39 22 0 37 22 25 37 -14 16 -22 16
-36 2z"/>
<path d="M1576 641 c-17 -7 -17 -9 9 -29 33 -26 53 -28 62 -6 10 27 -35 49
-71 35z"/>
<path d="M535 624 c-13 -14 -14 -19 -3 -25 7 -5 18 -9 25 -9 17 0 44 30 38 41
-10 14 -42 10 -60 -7z"/>
<path d="M1385 608 c-29 -16 -66 -58 -52 -58 7 0 22 -3 34 -6 17 -5 30 2 53
27 16 18 30 37 30 41 0 12 -42 9 -65 -4z"/>
<path d="M2316 598 c-9 -12 -46 -72 -82 -133 -35 -60 -74 -117 -86 -127 -31
-23 -13 -41 59 -61 176 -50 216 -43 178 29 -8 16 -15 55 -15 86 0 68 -19 210
-30 221 -4 5 -15 -2 -24 -15z m24 -18 c0 -11 -5 -19 -11 -17 -6 1 -14 -4 -16
-11 -3 -9 1 -12 13 -10 16 3 20 -7 27 -72 4 -41 6 -92 3 -112 -2 -21 0 -38 5
-38 5 0 9 -7 9 -15 0 -9 -9 -15 -22 -14 -13 0 -17 3 -10 6 6 2 12 9 12 14 0 6
-4 7 -10 4 -14 -9 -13 8 2 23 9 9 8 12 -5 12 -12 0 -17 -8 -17 -31 l0 -31 -46
7 c-62 9 -70 13 -81 37 -8 19 -10 20 -16 5 -10 -26 45 -48 135 -54 43 -3 78
-10 78 -16 0 -13 -114 -1 -176 19 -57 19 -74 32 -58 42 13 8 124 179 124 190
0 9 49 82 55 82 3 0 5 -9 5 -20z"/>
<path d="M2293 513 c-3 -10 -8 -21 -10 -25 -2 -4 2 -10 8 -14 7 -4 9 -3 5 4
-3 6 -2 13 4 17 5 3 10 1 10 -4 0 -6 8 -11 18 -11 14 0 12 4 -8 21 -24 20 -25
21 -2 16 12 -3 20 -1 16 4 -9 15 -34 10 -41 -8z"/>
<path d="M2283 428 c-6 -29 -7 -30 -14 -10 -10 25 -27 29 -35 7 -7 -18 12 -45
32 -45 7 0 17 14 22 32 4 17 14 34 21 36 8 3 11 0 7 -6 -3 -6 2 -16 11 -22 16
-10 15 -10 -4 -5 -14 4 -23 2 -23 -4 0 -6 11 -11 25 -11 29 0 29 0 13 35 -16
36 -47 33 -55 -7z"/>
<path d="M2238 370 c18 -21 15 -32 -7 -25 -24 7 -37 -10 -15 -19 9 -4 27 1 40
9 25 16 33 8 12 -13 -9 -9 -8 -12 4 -12 17 0 32 26 22 41 -3 6 -11 8 -17 6 -7
-2 -21 3 -32 12 -12 9 -15 10 -7 1z"/>
<path d="M636 571 c-15 -22 -26 -43 -26 -47 0 -3 -14 -26 -30 -51 -17 -24 -37
-58 -46 -75 -9 -17 -28 -42 -42 -55 -22 -20 -24 -26 -11 -37 19 -18 91 -42
168 -56 55 -10 66 -9 80 4 14 15 14 18 -1 44 -10 17 -18 65 -22 132 -11 182
-26 211 -70 141z m54 -101 c5 -63 12 -130 14 -147 4 -29 2 -33 -17 -32 -12 0
-16 3 -9 6 18 7 15 53 -3 53 -10 0 -15 -10 -15 -31 l0 -31 -46 7 c-62 9 -70
13 -81 37 -8 19 -10 20 -16 5 -10 -27 47 -50 135 -55 43 -2 75 -8 72 -13 -14
-23 -201 14 -232 45 -14 14 -14 16 -2 16 15 0 88 111 145 218 16 29 32 49 36
45 4 -5 13 -60 19 -123z"/>
<path d="M630 504 c-6 -15 -18 -33 -28 -40 -16 -12 -16 -13 0 -14 10 0 18 -10
21 -27 l4 -28 2 28 c1 34 6 34 36 1 29 -31 33 -20 6 15 -12 16 -24 22 -35 18
-9 -4 -16 -2 -16 4 0 5 14 12 31 16 23 4 29 10 27 27 -5 32 -36 32 -48 0z"/>
<path d="M577 433 c-13 -12 -7 -41 9 -47 29 -11 33 -6 23 24 -11 30 -20 36
-32 23z"/>
<path d="M638 376 c-22 -22 -56 -36 -71 -30 -8 3 -18 1 -22 -5 -6 -10 8 -16
29 -12 4 1 13 -3 20 -8 7 -6 21 -9 33 -8 18 1 20 5 12 24 -7 20 -5 23 16 23
27 0 34 15 10 24 -8 3 -20 -1 -27 -8z"/>
<path d="M1523 598 c-34 -42 -142 -208 -148 -227 -3 -12 -18 -26 -31 -31 -13
-5 -24 -14 -24 -20 0 -17 48 -42 118 -61 118 -33 199 -20 173 28 -5 10 -17 63
-26 118 -29 174 -32 186 -42 196 -6 6 -13 5 -20 -3z m9 -36 c-7 -2 -12 -10
-12 -18 0 -8 6 -11 15 -8 9 4 15 0 15 -10 0 -9 -6 -16 -13 -16 -7 0 -17 -10
-22 -22 -6 -13 -17 -23 -25 -23 -8 0 -17 -5 -20 -12 -3 -7 -10 -9 -17 -5 -9 6
1 27 34 77 29 43 48 64 51 55 3 -8 0 -16 -6 -18z m37 -129 c1 -30 -34 -40 -60
-18 -17 16 -19 16 -25 2 -13 -35 24 -46 79 -22 13 5 17 2 17 -14 0 -24 -29
-61 -48 -61 -8 0 -10 -5 -6 -12 4 -7 5 -11 1 -8 -3 3 -6 9 -6 13 0 4 -10 17
-23 28 -13 11 -17 18 -10 14 6 -3 12 -1 12 4 0 18 -19 12 -30 -9 -6 -11 -17
-20 -25 -20 -8 0 -15 -4 -15 -9 0 -5 15 -6 34 -1 29 6 35 5 39 -11 4 -15 0
-19 -24 -19 -40 0 -112 37 -105 55 13 35 58 95 66 90 16 -10 11 -34 -10 -47
-11 -7 -20 -16 -20 -21 0 -4 5 -5 12 -1 7 4 8 3 4 -4 -4 -7 -14 -12 -22 -12
-8 0 -14 -4 -14 -10 0 -5 7 -10 15 -10 8 0 15 5 15 10 0 6 9 10 20 10 21 0 37
38 27 64 -7 19 12 36 41 36 13 0 21 4 17 9 -3 5 0 13 6 17 8 4 9 3 5 -4 -4 -7
-2 -12 3 -12 6 0 11 10 12 23 1 21 1 21 9 -3 4 -14 8 -35 9 -47z m17 -128 c-6
-17 -46 -21 -46 -4 0 5 4 8 9 4 6 -3 15 5 22 17 13 24 26 10 15 -17z m-189 1
c47 -24 139 -44 130 -29 -3 5 12 7 34 5 36 -4 56 -21 27 -23 -103 -7 -248 29
-248 62 0 13 2 12 57 -15z"/>
<path d="M2172 570 c4 -41 43 -73 54 -45 8 21 -4 43 -35 63 -22 15 -22 15 -19
-18z"/>
<path d="M2407 593 c-12 -11 -7 -41 7 -46 21 -8 50 17 43 37 -6 16 -38 22 -50
9z"/>
<path d="M2967 572 c-10 -10 -17 -24 -17 -31 0 -17 42 -9 48 9 5 13 3 13 -12
1 -9 -8 -19 -11 -22 -8 -9 9 5 27 22 27 8 0 14 5 14 10 0 16 -15 12 -33 -8z"/>
<path d="M1600 545 c-15 -18 -5 -35 21 -35 12 0 19 7 19 19 0 24 -25 34 -40
16z"/>
<path d="M496 540 c-27 -8 -45 -25 -46 -41 0 -3 12 -4 28 -1 26 5 27 4 9 -15
-9 -11 -14 -23 -10 -28 5 -4 3 -5 -4 -2 -6 4 -14 1 -16 -5 -4 -8 -6 -7 -6 3
-1 9 6 20 15 23 9 4 15 9 12 11 -13 13 -38 -10 -38 -34 0 -15 -5 -32 -12 -39
-7 -7 -8 -12 -2 -12 13 1 64 47 64 59 0 6 9 16 20 23 11 7 20 16 20 21 0 4 -3
6 -7 4 -5 -3 -14 1 -21 9 -11 12 -9 13 9 11 12 -1 24 4 26 11 5 14 0 14 -41 2z"/>
<path d="M730 532 c0 -16 73 -72 93 -72 2 0 4 7 4 16 0 8 -16 26 -36 40 -36
24 -61 31 -61 16z"/>
<path d="M2425 506 c-21 -21 -25 -33 -23 -85 1 -39 6 -62 14 -65 18 -7 23 5
14 29 -10 26 15 75 38 75 10 0 27 7 38 15 19 15 19 15 -5 35 -30 26 -47 25
-76 -4z m28 -21 c-9 -19 -21 -35 -25 -35 -5 0 -6 -4 -3 -10 3 -5 2 -10 -4 -10
-5 0 -8 12 -7 28 5 38 5 39 16 22 8 -12 10 -11 10 6 0 22 8 34 22 34 4 0 0
-16 -9 -35z"/>
<path d="M1294 496 c-4 -11 -14 -14 -28 -10 -32 8 -52 -18 -31 -40 28 -28 61
-19 57 16 -2 9 28 32 33 26 3 -3 -9 -24 -26 -48 -21 -28 -34 -39 -39 -31 -5 8
-13 4 -25 -15 -17 -26 -17 -27 1 -19 11 4 31 10 47 13 15 2 27 9 26 16 -4 21
13 46 30 46 12 -1 11 -5 -8 -20 -25 -22 -21 -26 10 -10 22 12 26 40 6 40 -8 0
-13 10 -13 22 1 26 -31 37 -40 14z m-14 -47 c0 -18 -35 -5 -38 14 -3 16 -1 17
17 7 12 -6 21 -15 21 -21z"/>
<path d="M1658 483 c-8 -10 -22 -31 -32 -46 l-17 -28 28 7 c36 8 41 14 52 52
11 37 -6 44 -31 15z"/>
<path d="M2113 484 c-19 -10 -33 -24 -33 -34 0 -10 -2 -25 -5 -32 -4 -10 2
-14 18 -13 31 0 103 75 85 87 -18 11 -29 10 -65 -8z m32 -20 c-11 -8 -20 -19
-20 -24 0 -6 -3 -10 -7 -10 -5 0 -12 0 -17 0 -13 0 -7 30 7 39 6 4 22 7 34 8
23 2 23 2 3 -13z"/>
<path d="M2888 435 c-32 -34 -58 -66 -58 -70 0 -4 10 -23 21 -42 19 -30 23
-32 38 -20 9 8 24 17 34 20 9 4 17 11 17 17 0 5 6 10 13 10 6 0 21 8 32 16 19
14 19 16 2 25 -12 7 -16 17 -12 30 4 11 3 19 -2 18 -24 -4 -41 3 -39 16 4 25
14 27 21 5 6 -18 9 -19 23 -8 12 10 14 10 8 1 -4 -7 -2 -13 3 -13 6 0 11 4 11
8 0 9 -43 53 -51 51 -2 0 -30 -29 -61 -64z m12 -27 c-14 -11 -19 -17 -12 -13
13 7 82 -15 82 -26 0 -4 -14 -10 -30 -14 -17 -4 -27 -11 -24 -17 4 -6 -1 -8
-15 -3 -16 5 -20 3 -15 -9 9 -24 -9 -18 -29 9 -16 23 -16 24 0 34 10 6 14 11
8 11 -5 0 4 13 20 29 17 16 32 26 35 24 3 -2 -6 -13 -20 -25z"/>
<path d="M833 460 c-3 -31 61 -90 97 -90 18 0 30 5 30 13 -1 10 -109 97 -122
97 -2 0 -4 -9 -5 -20z m76 -45 c24 -16 38 -31 32 -33 -17 -6 -71 29 -90 57
-18 28 -18 28 58 -24z"/>
<path d="M2517 443 c-13 -13 -7 -34 20 -68 22 -28 30 -32 46 -24 10 6 26 8 35
4 15 -5 15 -7 2 -14 -17 -10 -56 -8 -66 2 -4 4 -16 7 -26 7 -12 0 -16 4 -12
12 5 8 0 9 -17 5 -13 -4 -30 -7 -37 -7 -27 0 -1 -18 35 -24 97 -16 120 -16
133 -1 10 11 10 19 2 27 -8 8 -7 16 1 29 17 27 -4 46 -36 32 -19 -9 -26 -8
-35 8 -12 19 -33 25 -45 12z m47 -56 l7 -29 -26 27 c-26 29 -29 37 -18 49 10
10 30 -15 37 -47z m66 14 c0 -12 -39 -25 -48 -16 -7 7 17 25 36 25 6 0 12 -4
12 -9z"/>
<path d="M0 430 c0 -5 13 -7 29 -4 31 7 71 -22 71 -51 0 -17 -16 -20 -25 -5
-8 13 -35 1 -35 -16 0 -8 -9 -23 -21 -35 -11 -11 -18 -24 -14 -27 4 -4 15 3
25 16 10 12 27 22 37 22 45 0 60 67 21 94 -25 18 -88 22 -88 6z"/>
<path d="M750 410 c-13 -9 -12 -12 4 -25 24 -19 50 -19 65 -2 23 28 -34 50
-69 27z"/>
<path d="M1703 405 c-36 -15 -49 -43 -29 -63 11 -12 12 -19 3 -33 -9 -15 -8
-22 6 -36 18 -17 19 -17 37 5 10 12 29 22 44 22 40 0 56 42 30 77 -26 35 -54
44 -91 28z m69 -22 c10 -9 18 -28 18 -42 -1 -25 -1 -25 -15 -7 -12 16 -17 17
-30 6 -8 -7 -15 -18 -15 -25 0 -18 -27 -38 -40 -30 -8 5 -4 15 11 31 24 25 20
54 -8 54 -17 1 -16 2 1 15 26 20 55 19 78 -2z"/>
<path d="M0 373 c0 -25 1 -26 16 -11 9 9 13 21 10 27 -13 20 -26 11 -26 -16z"/>
<path d="M280 385 c-17 -20 -5 -45 20 -45 11 0 23 7 26 15 6 15 -11 45 -26 45
-4 0 -13 -7 -20 -15z"/>
<path d="M1833 384 c-3 -8 -1 -20 6 -27 14 -14 47 15 37 32 -10 16 -36 13 -43
-5z"/>
<path d="M346 375 c-9 -24 4 -45 29 -45 29 0 38 13 30 40 -8 24 -50 27 -59 5z"/>
<path d="M1002 383 c-14 -5 -46 -62 -39 -69 9 -9 56 19 50 29 -3 6 -1 7 6 3 7
-5 22 2 36 16 l24 24 -32 1 c-18 0 -38 -2 -45 -4z"/>
<path d="M1140 363 c0 -15 10 -37 22 -50 19 -20 20 -28 11 -68 -12 -54 7 -94
55 -114 26 -11 35 -10 61 5 28 16 31 23 31 66 0 26 -5 50 -10 53 -6 4 -18 24
-27 46 -15 38 -48 59 -71 45 -5 -3 -18 6 -28 19 -25 33 -44 32 -44 -2z m104
-80 l31 -9 -42 -22 -43 -22 6 28 c4 21 -1 36 -20 59 -18 22 -22 33 -14 36 7 2
21 -11 32 -28 11 -20 31 -37 50 -42z m6 32 c7 -9 11 -17 9 -19 -7 -7 -49 13
-49 24 0 15 26 12 40 -5z m55 -118 c-9 -42 -22 -57 -50 -57 -29 0 -75 36 -75
58 1 10 22 27 53 42 49 24 53 24 65 7 9 -11 11 -29 7 -50z"/>
<path d="M1228 219 c-20 -11 -22 -18 -9 -38 7 -11 13 -11 32 -1 32 17 30 15
23 34 -7 18 -21 20 -46 5z"/>
<path d="M2687 362 c-20 -23 -40 -63 -34 -68 9 -10 72 24 98 53 l27 29 -38 1
c-25 1 -43 -4 -53 -15z"/>
<path d="M1974 356 c-9 -24 4 -48 23 -44 12 2 18 12 18 28 0 29 -32 41 -41 16z"/>
<path d="M2044 346 c-10 -26 4 -48 28 -44 17 2 23 10 23 28 0 18 -6 26 -23 28
-13 2 -25 -3 -28 -12z"/>
<path d="M116 328 c-15 -22 -7 -58 14 -58 6 0 10 -9 10 -21 0 -15 5 -20 23
-17 13 2 22 10 22 20 0 10 6 23 13 30 6 6 12 19 12 28 0 42 -68 56 -94 18z
m73 -2 c9 -11 7 -15 -7 -18 -15 -4 -18 -12 -14 -37 2 -19 0 -31 -7 -31 -6 0
-11 14 -11 30 0 20 -5 30 -15 30 -8 0 -15 6 -15 14 0 26 50 35 69 12z"/>
<path d="M785 281 c-8 -71 -4 -81 36 -81 35 0 79 39 79 69 0 22 -27 41 -58 41
-11 0 -22 7 -26 15 -12 31 -24 13 -31 -44z m61 12 c9 9 44 -11 44 -25 0 -6
-10 -3 -22 8 l-21 19 17 -27 c11 -16 13 -28 7 -32 -6 -4 -17 7 -26 25 -9 17
-19 29 -22 26 -2 -3 3 -17 13 -32 11 -17 14 -29 7 -36 -15 -15 -29 9 -37 60
-7 45 -7 45 14 26 11 -10 23 -15 26 -12z"/>
<path d="M1051 304 c-34 -39 -41 -83 -17 -103 11 -9 20 -10 35 -1 25 13 36 34
45 82 5 30 3 39 -12 47 -16 8 -25 4 -51 -25z m39 -44 c0 -9 -9 -25 -20 -35
-26 -23 -44 -8 -34 29 5 21 9 24 20 15 8 -7 17 -9 21 -5 3 3 1 6 -5 6 -7 0
-12 4 -12 10 0 5 7 7 15 4 8 -4 15 -14 15 -24z"/>
<path d="M1830 317 c-29 -14 -37 -48 -17 -68 7 -8 16 -22 20 -32 9 -25 41 -17
45 11 2 12 8 22 13 22 18 0 10 59 -10 70 -24 12 -21 12 -51 -3z m58 -24 c2 -7
-4 -13 -13 -13 -12 0 -15 -8 -13 -30 2 -16 -1 -29 -7 -29 -5 -1 -10 9 -10 22
0 13 -8 23 -18 25 -20 4 -22 13 -5 30 16 16 60 12 66 -5z"/>
<path d="M255 279 c-50 -60 -23 -136 56 -154 19 -5 34 0 57 20 30 25 32 25 56
10 39 -26 127 -46 143 -33 10 8 10 14 2 24 -15 18 -114 54 -141 51 -15 -1 -23
4 -25 18 -9 54 -15 66 -43 80 -45 23 -75 19 -105 -16z m118 -7 c24 -21 23 -62
-3 -62 -10 0 -24 9 -30 20 -12 22 -40 26 -58 8 -32 -32 8 -81 44 -53 14 10 15
14 5 15 -8 0 -12 3 -9 6 3 3 26 0 49 -7 40 -10 42 -12 22 -20 -13 -5 -23 -12
-23 -17 0 -15 -44 -29 -70 -22 -14 3 -25 12 -25 20 0 8 -7 15 -15 15 -31 0
-24 71 11 106 23 23 70 19 102 -9z m-48 -42 c3 -5 -1 -10 -10 -10 -11 0 -15
-5 -11 -15 3 -8 1 -15 -4 -15 -14 0 -21 17 -14 34 7 18 30 21 39 6z m131 -59
c22 4 35 -2 28 -13 -5 -8 -1 -9 12 -4 16 6 17 5 6 -6 -11 -11 -15 -10 -25 2
-7 9 -22 15 -34 14 -23 -1 -29 6 -16 19 4 4 10 2 13 -3 4 -6 11 -10 16 -9z"/>
<path d="M2475 300 c-3 -8 -6 -40 -8 -70 -2 -59 8 -69 59 -56 29 8 56 55 43
78 -12 21 -57 32 -75 17 -9 -7 -14 -8 -14 -1 0 6 4 12 10 14 6 2 6 9 0 18 -8
13 -10 13 -15 0z m73 -53 c1 -4 2 -16 2 -27 0 -25 -15 -26 -24 -2 -3 9 -8 22
-11 28 -3 6 2 10 12 9 10 0 19 -4 21 -8z m-33 -26 c10 -21 12 -32 4 -37 -14
-8 -29 14 -29 44 0 30 6 28 25 -7z"/>
<path d="M2752 285 c-32 -40 -17 -69 36 -72 48 -2 57 7 41 39 -7 13 -15 30
-19 38 -12 25 -36 23 -58 -5z m38 -5 c-13 -8 -10 -14 15 -35 17 -13 26 -24 21
-25 -5 0 -18 7 -28 16 -14 14 -20 14 -33 4 -12 -10 -15 -10 -15 3 0 30 12 47
34 47 17 0 18 -2 6 -10z"/>
<path d="M415 280 c-8 -13 73 -70 91 -63 8 3 14 0 14 -6 0 -6 5 -11 12 -11 9
0 9 3 0 12 -7 7 -12 20 -12 30 0 9 -8 21 -17 26 -29 15 -82 22 -88 12z"/>
<path d="M1942 263 c-18 -7 -42 -58 -42 -91 0 -67 97 -107 146 -61 l23 21 45
-21 c49 -24 127 -33 133 -15 2 7 -17 22 -42 34 -51 25 -143 40 -131 22 4 -7
-4 -8 -26 -1 -18 4 -46 7 -63 6 -24 -2 -30 2 -30 18 0 14 8 21 25 23 24 3 24
3 5 -11 -11 -9 -16 -19 -11 -24 5 -4 11 -3 13 3 3 9 13 9 39 1 40 -12 58 2 48
38 -14 48 -81 79 -132 58z m81 -14 c28 -15 37 -28 37 -56 0 -25 -18 -23 -59 9
-24 18 -25 18 -45 -2 -28 -28 -11 -55 35 -56 63 -1 64 -2 44 -24 -25 -28 -70
-26 -100 5 -25 24 -36 83 -13 69 8 -5 9 -2 5 10 -8 21 25 56 54 56 11 0 30 -5
42 -11z m147 -124 c11 7 60 -16 60 -27 0 -5 -10 -6 -22 -2 -13 4 -29 7 -35 7
-7 0 -13 4 -13 8 0 5 -8 5 -17 2 -16 -6 -17 -5 -3 11 8 11 16 14 18 7 2 -6 7
-9 12 -6z"/>
<path d="M2920 255 c-10 -13 -15 -13 -21 -3 -4 7 -11 9 -15 5 -4 -4 -2 -13 4
-19 7 -7 12 -22 12 -35 0 -26 51 -63 85 -62 13 0 6 7 -21 19 -23 10 -45 23
-49 30 -4 6 12 2 35 -10 23 -12 44 -19 47 -16 3 3 -11 11 -30 19 -19 8 -38 20
-42 27 -11 17 15 31 36 19 10 -5 24 -9 31 -8 7 0 -3 8 -22 16 -19 9 -30 18
-23 20 7 2 21 -1 32 -7 12 -6 21 -7 21 -1 0 23 -62 28 -80 6z"/>
<path d="M36 241 c23 -10 43 -23 46 -27 2 -5 -3 -24 -13 -41 l-16 -33 -27 21
c-14 11 -26 16 -26 10 0 -18 77 -62 117 -68 62 -8 88 46 35 73 -13 6 -35 23
-50 37 -33 30 -65 47 -89 47 -10 0 1 -9 23 -19z m122 -84 c15 4 15 3 2 -6 -8
-6 -23 -11 -34 -11 -16 0 -17 -2 -5 -17 13 -16 12 -17 -3 -5 -17 13 -14 47 3
36 5 -3 9 1 10 8 0 9 2 10 5 1 3 -7 13 -9 22 -6z"/>
<path d="M2096 252 c-10 -9 -7 -40 5 -47 16 -11 23 3 10 19 -9 11 -9 16 0 22
7 4 9 3 6 -3 -10 -16 18 -24 33 -10 10 9 12 8 7 -5 -4 -10 -3 -18 2 -18 15 0
30 25 23 37 -7 11 -76 16 -86 5z"/>
<path d="M2690 251 c0 -5 -14 -24 -31 -42 -17 -19 -32 -38 -33 -44 -1 -5 -8
-20 -15 -33 -15 -29 -7 -55 16 -50 10 2 25 -5 34 -16 15 -18 19 -19 34 -6 10
8 15 23 12 36 -3 19 1 24 22 26 37 4 42 45 7 54 -15 3 -32 1 -41 -6 -8 -6 -19
-9 -24 -6 -14 9 -1 38 14 32 9 -3 14 7 17 30 2 19 0 34 -4 34 -4 0 -8 -4 -8
-9z m60 -101 c0 -12 -28 -20 -46 -13 -15 6 -15 7 1 19 17 13 45 9 45 -6z
m-114 -48 c-15 -15 -16 -15 -16 4 0 28 24 52 28 28 2 -9 -3 -24 -12 -32z"/>
<path d="M904 225 c-10 -15 -14 -34 -10 -49 7 -27 47 -47 54 -27 3 9 7 9 18 0
7 -6 21 -9 29 -5 19 7 20 35 1 42 -8 3 -12 12 -9 20 3 8 0 21 -7 29 -19 23
-57 18 -76 -10z m53 1 c-17 -13 -16 -15 13 -36 16 -12 27 -26 24 -32 -4 -5
-15 -1 -28 11 -20 19 -23 19 -38 5 -15 -15 -17 -14 -23 6 -8 27 19 60 49 60
20 -1 20 -1 3 -14z"/>
<path d="M1690 230 c-55 -14 -10 -99 75 -140 51 -25 77 -25 99 -1 20 22 12 48
-17 57 -12 4 -29 16 -38 28 -27 34 -90 64 -119 56z m66 -30 l33 -21 -22 -34
-22 -33 -34 33 c-25 24 -32 38 -26 54 8 26 28 27 71 1z m84 -75 c0 -8 -7 -15
-15 -15 -9 0 -12 -6 -8 -17 5 -14 3 -15 -6 -7 -10 9 -10 17 -2 33 13 24 31 28
31 6z"/>
<path d="M2245 230 c-9 -14 5 -32 20 -26 22 8 55 -37 55 -77 0 -24 5 -37 13
-37 20 0 47 33 47 58 0 27 -36 65 -52 56 -7 -5 -2 -11 13 -17 21 -9 22 -11 5
-15 -21 -5 -37 14 -29 35 3 8 -2 13 -15 13 -12 0 -24 5 -27 10 -3 6 -10 10
-15 10 -5 0 -12 -4 -15 -10z"/>
<path d="M705 209 c-4 -6 5 -33 19 -61 23 -44 25 -55 16 -84 -8 -23 -8 -39 -1
-51 9 -16 10 -16 11 4 0 16 13 29 52 48 58 29 67 24 68 -35 1 -32 2 -33 11
-12 7 18 3 37 -18 80 -30 64 -37 72 -73 72 -15 0 -33 10 -44 25 -20 27 -31 31
-41 14z m60 -62 c11 -17 29 -33 40 -35 38 -7 35 -18 -10 -40 l-44 -21 8 22
c10 25 0 57 -23 76 -9 7 -13 17 -10 22 9 15 18 10 39 -24z m63 -14 c5 -18 -20
-16 -44 2 -18 15 -18 15 10 13 16 -2 31 -9 34 -15z"/>
<path d="M1412 208 c-6 -7 -13 -25 -17 -41 -4 -15 -11 -27 -16 -27 -10 0 -83
-129 -76 -136 2 -3 21 24 41 60 54 97 81 84 31 -14 -14 -28 -22 -50 -17 -50
12 0 63 110 56 121 -3 6 2 26 12 45 13 24 15 37 8 44 -8 8 -14 7 -22 -2z"/>
<path d="M1528 215 c-6 -7 0 -104 8 -116 9 -15 48 -10 70 9 46 37 31 92 -25
92 -15 0 -32 5 -37 10 -6 6 -13 8 -16 5z m87 -66 c16 -24 -7 -20 -37 7 l-32
29 28 -35 c18 -22 24 -36 16 -38 -16 -6 -25 5 -44 50 l-15 38 39 -20 c21 -11
42 -25 45 -31z"/>
<path d="M2173 201 c-3 -12 -10 -21 -16 -21 -8 0 -7 -4 1 -12 13 -13 42 5 42
28 0 23 -21 27 -27 5z"/>
<path d="M570 192 c0 -5 8 -16 18 -25 34 -31 89 -14 62 18 -13 16 -80 21 -80
7z"/>
<path d="M2409 188 c-10 -19 -3 -57 13 -75 17 -18 19 -30 14 -67 l-7 -46 58
30 c31 16 59 30 61 30 1 0 9 -15 17 -32 14 -32 14 -32 15 -7 0 15 -7 32 -15
39 -8 7 -15 20 -15 30 0 24 -32 50 -63 50 -15 0 -33 10 -45 25 -18 22 -29 30
-33 23z m48 -68 c8 -22 20 -32 42 -36 40 -8 39 -16 -4 -37 -45 -21 -43 -22
-38 8 3 15 -3 34 -16 51 -24 31 -27 44 -8 44 7 0 18 -14 24 -30z m63 -20 c0
-6 -6 -10 -14 -10 -16 0 -38 24 -30 33 9 8 44 -11 44 -23z"/>
<path d="M2808 153 c-31 -40 -36 -74 -13 -93 17 -14 52 -5 64 18 5 10 11 37
13 62 3 39 0 45 -17 47 -13 2 -30 -10 -47 -34z m42 -23 c11 -7 11 -10 2 -10
-7 0 -10 -5 -7 -10 8 -13 -13 -40 -31 -40 -9 0 -14 11 -14 31 0 24 4 30 16 25
8 -3 12 -2 9 4 -8 13 5 13 25 0z"/>
<path d="M2234 165 c-7 -18 3 -35 22 -35 20 0 30 30 13 41 -20 12 -29 11 -35
-6z"/>
<path d="M1044 147 c-22 -20 -27 -32 -29 -85 -2 -55 -1 -62 16 -62 16 0 18 5
13 25 -8 34 18 72 56 80 40 9 45 20 20 45 -26 26 -43 25 -76 -3z"/>
<path d="M686 121 c-3 -5 -18 -12 -33 -15 -49 -12 -133 -51 -133 -62 0 -13 32
-44 46 -44 5 0 5 4 -1 8 -5 4 -17 16 -25 26 -11 15 -11 18 -1 12 8 -5 16 -3
22 5 4 7 12 10 16 5 4 -5 2 -11 -4 -13 -15 -5 -18 -23 -4 -23 5 0 14 13 20 30
12 35 23 39 20 8 -3 -36 0 -58 9 -58 5 0 7 20 5 44 -3 42 -2 45 18 41 13 -3
27 2 34 12 8 11 14 13 19 5 4 -7 2 -12 -4 -12 -6 0 -8 -4 -5 -10 3 -5 1 -10
-4 -10 -6 0 -11 -5 -11 -11 0 -5 5 -7 10 -4 6 3 10 1 10 -4 0 -6 -8 -11 -17
-12 -11 0 -13 -3 -5 -6 6 -2 12 -9 12 -15 0 -6 -7 -8 -15 -5 -8 4 -17 2 -20
-3 -4 -6 4 -10 17 -10 21 0 26 8 40 65 12 52 13 65 2 65 -7 0 -15 -4 -18 -9z"/>
<path d="M426 78 c-12 -28 -12 -35 2 -53 20 -27 67 -33 54 -7 -5 9 -8 28 -6
41 3 17 0 22 -10 18 -10 -4 -12 0 -9 14 9 32 -17 21 -31 -13z"/>
<path d="M1160 101 c0 -6 5 -13 11 -17 8 -4 8 -9 0 -17 -18 -18 -13 -41 12
-56 22 -14 22 -14 3 8 -11 11 -16 24 -13 27 3 4 18 -7 32 -22 23 -25 24 -25
11 -4 -20 30 -22 60 -4 42 15 -15 32 -16 23 -2 -3 5 -4 10 -1 10 3 0 14 -17
25 -38 24 -45 28 -34 5 14 -11 22 -25 36 -43 40 -14 3 -34 9 -43 15 -12 6 -18
6 -18 0z"/>
<path d="M228 76 c-65 -12 -121 -26 -125 -29 -4 -4 -2 -12 5 -19 8 -8 23 -8
56 1 25 6 70 11 101 11 59 0 119 23 112 43 -6 18 -22 17 -149 -7z m112 -11
c-28 -16 -110 -21 -95 -6 11 10 45 18 90 19 l30 1 -25 -14z"/>
<path d="M2335 76 c-88 -33 -127 -55 -118 -68 5 -9 8 -9 11 0 2 8 8 8 23 -1
16 -10 21 -9 29 3 5 8 7 17 4 21 -2 4 1 11 7 14 7 5 9 -1 7 -16 -3 -20 1 -23
37 -25 22 -2 32 0 23 2 -10 3 -15 11 -11 20 3 8 0 14 -7 14 -6 0 -9 -4 -5 -9
3 -5 1 -12 -4 -15 -5 -3 -11 6 -14 20 -4 22 -2 25 17 22 12 -3 28 2 35 9 7 8
16 12 19 8 4 -3 0 -10 -8 -15 -13 -9 -13 -10 0 -11 10 0 8 -3 -5 -9 -11 -5
-14 -9 -7 -9 6 -1 12 -9 13 -18 0 -15 1 -15 8 2 15 35 23 85 14 84 -4 -1 -35
-11 -68 -23z"/>
<path d="M2913 87 c3 -7 -4 -19 -14 -25 -12 -8 -18 -22 -18 -40 l2 -27 4 28
c2 15 9 27 14 27 5 0 7 -11 3 -25 -4 -15 -2 -25 4 -25 6 0 12 12 14 28 l4 27
11 -25 c10 -22 12 -23 13 -5 2 17 3 16 10 -5 8 -24 8 -24 9 -2 1 12 -8 31 -19
42 -11 11 -20 25 -20 30 0 6 -5 10 -11 10 -6 0 -9 -6 -6 -13z"/>
<path d="M13 83 c-26 -10 -12 -23 19 -18 27 5 30 4 18 -10 -7 -8 -21 -15 -31
-15 -11 0 -19 -6 -19 -14 0 -9 7 -12 19 -9 10 3 22 0 25 -6 4 -6 12 -11 19
-11 6 0 4 7 -5 17 -16 15 -16 17 -1 28 33 24 -3 55 -44 38z"/>
<path d="M1465 69 c-16 -10 -33 -20 -36 -21 -4 -2 -9 -14 -13 -28 -6 -24 -6
-24 9 3 20 34 27 34 20 0 -5 -26 -5 -26 4 -5 13 27 41 29 41 2 0 -11 5 -20 11
-20 6 0 8 9 4 21 -5 15 -4 19 4 15 6 -4 11 -14 11 -22 0 -8 5 -14 10 -14 14 0
12 12 -6 38 -10 15 -22 21 -33 18 -14 -5 -13 -4 2 8 18 14 23 27 10 25 -5 0
-21 -9 -38 -20z"/>
<path d="M1626 64 c-5 -12 7 -52 17 -55 61 -17 126 2 114 35 -7 18 -42 22 -52
5 -5 -6 -13 -3 -22 10 -17 25 -48 28 -57 5z m45 -23 c7 -18 6 -22 -9 -19 -9 2
-19 14 -20 27 -5 30 18 24 29 -8z m79 -10 c0 -10 -24 -21 -46 -21 -20 0 -17
18 4 23 29 8 42 7 42 -2z"/>
<path d="M2121 49 c-13 -38 -4 -60 15 -35 11 16 13 16 23 -1 9 -16 10 -15 11
10 0 16 -4 26 -10 22 -5 -3 -10 3 -10 14 0 31 -17 25 -29 -10z"/>
<path d="M2019 66 c-2 -2 -49 -12 -104 -21 -55 -9 -107 -23 -115 -31 -9 -9
-10 -14 -3 -14 7 0 15 5 18 10 3 6 14 10 23 10 15 0 15 -2 2 -11 -11 -8 -4 -8
25 -3 22 4 65 7 95 6 41 -2 64 3 88 18 18 11 30 25 27 30 -6 10 -48 14 -56 6z
m27 -21 c-25 -19 -81 -29 -103 -20 -13 6 -1 11 42 20 80 17 83 17 61 0z"/>
<path d="M791 41 l-24 -19 21 -11 c30 -16 65 5 51 31 -12 22 -18 22 -48 -1z"/>
<path d="M911 42 c-12 -23 1 -45 25 -40 23 4 31 37 12 49 -19 13 -26 11 -37
-9z"/>
<path d="M2736 31 c-5 -7 4 -11 23 -11 16 0 33 -4 36 -10 3 -5 11 -10 18 -10
7 0 6 5 -3 14 -20 20 -66 30 -74 17z"/>
<path d="M324 15 c-17 -12 -13 -14 33 -13 32 0 51 4 47 10 -3 5 -8 7 -11 4 -3
-2 -15 -1 -28 4 -16 6 -29 4 -41 -5z"/>
<path d="M2680 10 c0 -6 19 -10 42 -10 49 0 46 9 -6 15 -20 3 -36 1 -36 -5z"/>
</g>
</svg>
